%TF.GenerationSoftware,KiCad,Pcbnew,9.0.2*%
%TF.CreationDate,2025-09-08T10:53:28+03:00*%
%TF.ProjectId,OpenAirScope,4f70656e-4169-4725-9363-6f70652e6b69,v0-Draft*%
%TF.SameCoordinates,Original*%
%TF.FileFunction,Soldermask,Top*%
%TF.FilePolarity,Negative*%
%FSLAX46Y46*%
G04 Gerber Fmt 4.6, Leading zero omitted, Abs format (unit mm)*
G04 Created by KiCad (PCBNEW 9.0.2) date 2025-09-08 10:53:28*
%MOMM*%
%LPD*%
G01*
G04 APERTURE LIST*
G04 Aperture macros list*
%AMRoundRect*
0 Rectangle with rounded corners*
0 $1 Rounding radius*
0 $2 $3 $4 $5 $6 $7 $8 $9 X,Y pos of 4 corners*
0 Add a 4 corners polygon primitive as box body*
4,1,4,$2,$3,$4,$5,$6,$7,$8,$9,$2,$3,0*
0 Add four circle primitives for the rounded corners*
1,1,$1+$1,$2,$3*
1,1,$1+$1,$4,$5*
1,1,$1+$1,$6,$7*
1,1,$1+$1,$8,$9*
0 Add four rect primitives between the rounded corners*
20,1,$1+$1,$2,$3,$4,$5,0*
20,1,$1+$1,$4,$5,$6,$7,0*
20,1,$1+$1,$6,$7,$8,$9,0*
20,1,$1+$1,$8,$9,$2,$3,0*%
%AMFreePoly0*
4,1,64,0.235711,1.439036,0.382774,1.378120,0.515127,1.289684,0.627684,1.177127,0.716120,1.044774,0.777036,0.897711,0.808090,0.741590,0.808090,0.582410,0.777036,0.426289,0.716120,0.279226,0.627684,0.146873,0.515127,0.034316,0.382774,-0.054120,0.235711,-0.115036,0.079590,-0.146090,0.031746,-0.146090,0.029264,-0.147118,-0.029264,-0.147118,-0.031746,-0.146090,-0.079590,-0.146090,
-0.235711,-0.115036,-0.382774,-0.054120,-0.515127,0.034316,-0.627684,0.146873,-0.716120,0.279226,-0.777036,0.426289,-0.808090,0.582410,-0.808090,0.729406,-0.512000,0.729406,-0.512000,0.594594,-0.477108,0.464375,-0.409702,0.347625,-0.314375,0.252298,-0.197625,0.184892,-0.067406,0.150000,0.067406,0.150000,0.197625,0.184892,0.314375,0.252298,0.409702,0.347625,0.477108,0.464375,
0.512000,0.594594,0.512000,0.729406,0.477108,0.859625,0.409702,0.976375,0.314375,1.071702,0.197625,1.139108,0.067406,1.174000,-0.067406,1.174000,-0.197625,1.139108,-0.314375,1.071702,-0.409702,0.976375,-0.477108,0.859625,-0.512000,0.729406,-0.808090,0.729406,-0.808090,0.741590,-0.777036,0.897711,-0.716120,1.044774,-0.627684,1.177127,-0.515127,1.289684,-0.382774,1.378120,
-0.235711,1.439036,-0.079590,1.470090,0.079590,1.470090,0.235711,1.439036,0.235711,1.439036,$1*%
G04 Aperture macros list end*
%ADD10C,0.010000*%
%ADD11RoundRect,0.140000X0.140000X0.170000X-0.140000X0.170000X-0.140000X-0.170000X0.140000X-0.170000X0*%
%ADD12C,2.000000*%
%ADD13RoundRect,0.250000X-0.650000X0.325000X-0.650000X-0.325000X0.650000X-0.325000X0.650000X0.325000X0*%
%ADD14RoundRect,0.200000X-0.200000X-0.275000X0.200000X-0.275000X0.200000X0.275000X-0.200000X0.275000X0*%
%ADD15RoundRect,0.225000X0.225000X0.250000X-0.225000X0.250000X-0.225000X-0.250000X0.225000X-0.250000X0*%
%ADD16RoundRect,0.225000X-0.225000X-0.250000X0.225000X-0.250000X0.225000X0.250000X-0.225000X0.250000X0*%
%ADD17C,1.000000*%
%ADD18RoundRect,0.200000X0.200000X0.275000X-0.200000X0.275000X-0.200000X-0.275000X0.200000X-0.275000X0*%
%ADD19RoundRect,0.250000X-0.325000X-0.650000X0.325000X-0.650000X0.325000X0.650000X-0.325000X0.650000X0*%
%ADD20RoundRect,0.200000X0.275000X-0.200000X0.275000X0.200000X-0.275000X0.200000X-0.275000X-0.200000X0*%
%ADD21RoundRect,0.200000X-0.275000X0.200000X-0.275000X-0.200000X0.275000X-0.200000X0.275000X0.200000X0*%
%ADD22C,3.200000*%
%ADD23RoundRect,0.250000X-0.475000X0.250000X-0.475000X-0.250000X0.475000X-0.250000X0.475000X0.250000X0*%
%ADD24RoundRect,0.062500X-0.062500X0.117500X-0.062500X-0.117500X0.062500X-0.117500X0.062500X0.117500X0*%
%ADD25RoundRect,0.218750X-0.218750X-0.256250X0.218750X-0.256250X0.218750X0.256250X-0.218750X0.256250X0*%
%ADD26RoundRect,0.102000X-0.330000X-0.155000X0.330000X-0.155000X0.330000X0.155000X-0.330000X0.155000X0*%
%ADD27R,1.500000X0.900000*%
%ADD28C,0.600000*%
%ADD29R,2.900000X2.900000*%
%ADD30R,1.700000X1.700000*%
%ADD31C,1.700000*%
%ADD32RoundRect,0.075000X-0.275000X0.390000X-0.275000X-0.390000X0.275000X-0.390000X0.275000X0.390000X0*%
%ADD33RoundRect,0.075000X-0.275000X0.075000X-0.275000X-0.075000X0.275000X-0.075000X0.275000X0.075000X0*%
%ADD34RoundRect,0.075000X0.075000X-0.662500X0.075000X0.662500X-0.075000X0.662500X-0.075000X-0.662500X0*%
%ADD35RoundRect,0.075000X0.662500X-0.075000X0.662500X0.075000X-0.662500X0.075000X-0.662500X-0.075000X0*%
%ADD36RoundRect,0.150000X0.150000X-0.587500X0.150000X0.587500X-0.150000X0.587500X-0.150000X-0.587500X0*%
%ADD37RoundRect,0.075000X-0.250000X-0.075000X0.250000X-0.075000X0.250000X0.075000X-0.250000X0.075000X0*%
%ADD38RoundRect,0.225000X-0.250000X0.225000X-0.250000X-0.225000X0.250000X-0.225000X0.250000X0.225000X0*%
%ADD39C,2.529000*%
%ADD40C,2.679000*%
%ADD41RoundRect,0.250000X0.250000X0.475000X-0.250000X0.475000X-0.250000X-0.475000X0.250000X-0.475000X0*%
%ADD42RoundRect,0.102000X0.350000X0.900000X-0.350000X0.900000X-0.350000X-0.900000X0.350000X-0.900000X0*%
%ADD43RoundRect,0.102000X0.900000X0.350000X-0.900000X0.350000X-0.900000X-0.350000X0.900000X-0.350000X0*%
%ADD44RoundRect,0.250001X-0.799999X-0.799999X0.799999X-0.799999X0.799999X0.799999X-0.799999X0.799999X0*%
%ADD45C,2.100000*%
%ADD46RoundRect,0.050000X0.262500X0.050000X-0.262500X0.050000X-0.262500X-0.050000X0.262500X-0.050000X0*%
%ADD47R,0.400000X2.800000*%
%ADD48RoundRect,0.150000X-0.875000X-0.150000X0.875000X-0.150000X0.875000X0.150000X-0.875000X0.150000X0*%
%ADD49RoundRect,0.102000X0.200000X-0.275000X0.200000X0.275000X-0.200000X0.275000X-0.200000X-0.275000X0*%
%ADD50RoundRect,0.102000X-0.490000X-1.700000X0.490000X-1.700000X0.490000X1.700000X-0.490000X1.700000X0*%
%ADD51RoundRect,0.250000X0.325000X0.650000X-0.325000X0.650000X-0.325000X-0.650000X0.325000X-0.650000X0*%
%ADD52RoundRect,0.150000X0.825000X0.150000X-0.825000X0.150000X-0.825000X-0.150000X0.825000X-0.150000X0*%
%ADD53RoundRect,0.075000X0.390000X0.275000X-0.390000X0.275000X-0.390000X-0.275000X0.390000X-0.275000X0*%
%ADD54RoundRect,0.075000X0.075000X0.275000X-0.075000X0.275000X-0.075000X-0.275000X0.075000X-0.275000X0*%
%ADD55RoundRect,0.225000X0.250000X-0.225000X0.250000X0.225000X-0.250000X0.225000X-0.250000X-0.225000X0*%
%ADD56R,1.600000X1.600000*%
%ADD57C,1.600000*%
%ADD58RoundRect,0.218750X0.218750X0.256250X-0.218750X0.256250X-0.218750X-0.256250X0.218750X-0.256250X0*%
%ADD59RoundRect,0.102000X-0.654000X-0.654000X0.654000X-0.654000X0.654000X0.654000X-0.654000X0.654000X0*%
%ADD60C,1.512000*%
%ADD61RoundRect,0.150000X0.587500X0.150000X-0.587500X0.150000X-0.587500X-0.150000X0.587500X-0.150000X0*%
%ADD62RoundRect,0.250000X-0.250000X-0.475000X0.250000X-0.475000X0.250000X0.475000X-0.250000X0.475000X0*%
%ADD63RoundRect,0.062500X0.117500X0.062500X-0.117500X0.062500X-0.117500X-0.062500X0.117500X-0.062500X0*%
%ADD64RoundRect,0.250000X0.650000X-0.325000X0.650000X0.325000X-0.650000X0.325000X-0.650000X-0.325000X0*%
%ADD65C,0.650000*%
%ADD66RoundRect,0.150000X-0.425000X0.150000X-0.425000X-0.150000X0.425000X-0.150000X0.425000X0.150000X0*%
%ADD67RoundRect,0.075000X-0.500000X0.075000X-0.500000X-0.075000X0.500000X-0.075000X0.500000X0.075000X0*%
%ADD68RoundRect,0.250000X-0.750000X0.840000X-0.750000X-0.840000X0.750000X-0.840000X0.750000X0.840000X0*%
%ADD69RoundRect,0.150000X-0.150000X0.587500X-0.150000X-0.587500X0.150000X-0.587500X0.150000X0.587500X0*%
%ADD70RoundRect,0.218750X-0.256250X0.218750X-0.256250X-0.218750X0.256250X-0.218750X0.256250X0.218750X0*%
%ADD71C,0.500000*%
%ADD72RoundRect,0.130500X-0.169500X-0.130500X0.169500X-0.130500X0.169500X0.130500X-0.169500X0.130500X0*%
%ADD73FreePoly0,90.000000*%
%ADD74RoundRect,0.062500X0.062500X-0.350000X0.062500X0.350000X-0.062500X0.350000X-0.062500X-0.350000X0*%
%ADD75RoundRect,0.062500X0.350000X-0.062500X0.350000X0.062500X-0.350000X0.062500X-0.350000X-0.062500X0*%
%ADD76R,2.500000X2.500000*%
%ADD77RoundRect,0.112500X-0.237500X0.112500X-0.237500X-0.112500X0.237500X-0.112500X0.237500X0.112500X0*%
%ADD78RoundRect,0.250000X0.475000X-0.250000X0.475000X0.250000X-0.475000X0.250000X-0.475000X-0.250000X0*%
%ADD79R,1.000000X1.000000*%
%ADD80R,1.100000X1.900000*%
%ADD81RoundRect,0.102000X-0.619000X0.619000X-0.619000X-0.619000X0.619000X-0.619000X0.619000X0.619000X0*%
%ADD82C,1.442000*%
%ADD83R,2.200000X2.200000*%
%ADD84C,2.200000*%
%ADD85RoundRect,0.212500X0.737500X0.212500X-0.737500X0.212500X-0.737500X-0.212500X0.737500X-0.212500X0*%
%ADD86RoundRect,0.212500X0.212500X0.737500X-0.212500X0.737500X-0.212500X-0.737500X0.212500X-0.737500X0*%
%ADD87R,4.800000X4.800000*%
G04 APERTURE END LIST*
D10*
%TO.C,U11*%
X100810000Y-100235000D02*
X99330000Y-100235000D01*
X99010000Y-99915000D01*
X99010000Y-98885000D01*
X100810000Y-98885000D01*
X100810000Y-100235000D01*
G36*
X100810000Y-100235000D02*
G01*
X99330000Y-100235000D01*
X99010000Y-99915000D01*
X99010000Y-98885000D01*
X100810000Y-98885000D01*
X100810000Y-100235000D01*
G37*
%TD*%
D11*
%TO.C,C53*%
X187910000Y-99660000D03*
X186950000Y-99660000D03*
%TD*%
D12*
%TO.C,SW3*%
X156750000Y-133850000D03*
X156750000Y-127350000D03*
X161250000Y-133850000D03*
X161250000Y-127350000D03*
%TD*%
D13*
%TO.C,C15*%
X145020000Y-135205000D03*
X145020000Y-138155000D03*
%TD*%
D14*
%TO.C,R60*%
X179435000Y-108240000D03*
X181085000Y-108240000D03*
%TD*%
D15*
%TO.C,C56*%
X108875000Y-89300000D03*
X107325000Y-89300000D03*
%TD*%
%TO.C,C40*%
X150130000Y-124390000D03*
X148580000Y-124390000D03*
%TD*%
D16*
%TO.C,C78*%
X166735000Y-91835000D03*
X168285000Y-91835000D03*
%TD*%
D17*
%TO.C,TP13*%
X128428624Y-127056818D03*
%TD*%
%TO.C,TP11*%
X134500000Y-129710000D03*
%TD*%
D18*
%TO.C,R82*%
X137450000Y-131480000D03*
X135800000Y-131480000D03*
%TD*%
D19*
%TO.C,C69*%
X100785000Y-94790000D03*
X103735000Y-94790000D03*
%TD*%
D20*
%TO.C,R20*%
X173240000Y-84935000D03*
X173240000Y-83285000D03*
%TD*%
D21*
%TO.C,R42*%
X102210000Y-100715000D03*
X102210000Y-102365000D03*
%TD*%
D22*
%TO.C,H2*%
X194840000Y-74650000D03*
%TD*%
D23*
%TO.C,C4*%
X119480000Y-134195000D03*
X119480000Y-136095000D03*
%TD*%
D18*
%TO.C,R19*%
X154770000Y-89070000D03*
X153120000Y-89070000D03*
%TD*%
D24*
%TO.C,D17*%
X132980000Y-131167500D03*
X132980000Y-130327500D03*
%TD*%
D14*
%TO.C,R22*%
X128295000Y-94680000D03*
X129945000Y-94680000D03*
%TD*%
D24*
%TO.C,D16*%
X134020000Y-122700000D03*
X134020000Y-121860000D03*
%TD*%
D20*
%TO.C,R90*%
X130250000Y-125840000D03*
X130250000Y-124190000D03*
%TD*%
D21*
%TO.C,R74*%
X186000000Y-79660000D03*
X186000000Y-81310000D03*
%TD*%
D25*
%TO.C,D14*%
X190242500Y-81010000D03*
X191817500Y-81010000D03*
%TD*%
D26*
%TO.C,U3*%
X139010000Y-135085000D03*
X139010000Y-135585000D03*
X139010000Y-136085000D03*
X140480000Y-136085000D03*
X140480000Y-135585000D03*
X140480000Y-135085000D03*
%TD*%
D27*
%TO.C,U7*%
X111080000Y-78710000D03*
X111080000Y-80210000D03*
X111080000Y-81710000D03*
X111080000Y-83210000D03*
X111080000Y-84710000D03*
X111080000Y-86210000D03*
X111080000Y-87710000D03*
X111080000Y-89210000D03*
X111080000Y-90710000D03*
X128580000Y-90710000D03*
X128580000Y-89210000D03*
X128580000Y-87710000D03*
X128580000Y-86210000D03*
X128580000Y-84710000D03*
X128580000Y-83210000D03*
X128580000Y-81710000D03*
X128580000Y-80210000D03*
X128580000Y-78710000D03*
D28*
X119690000Y-84360000D03*
X119690000Y-85460000D03*
X120240000Y-83810000D03*
X120240000Y-84910000D03*
X120240000Y-86010000D03*
X120790000Y-84360000D03*
D29*
X120790000Y-84910000D03*
D28*
X120790000Y-85460000D03*
X121340000Y-83810000D03*
X121340000Y-84910000D03*
X121340000Y-86010000D03*
X121890000Y-84360000D03*
X121890000Y-85460000D03*
%TD*%
D30*
%TO.C,J13*%
X196100000Y-135560000D03*
D31*
X196100000Y-133020000D03*
X196100000Y-130480000D03*
X196100000Y-127940000D03*
X196100000Y-125400000D03*
X196100000Y-122860000D03*
X196100000Y-120320000D03*
%TD*%
D14*
%TO.C,R52*%
X164080000Y-81430000D03*
X165730000Y-81430000D03*
%TD*%
D32*
%TO.C,D1*%
X108850000Y-134130000D03*
D33*
X108850000Y-135015000D03*
%TD*%
D21*
%TO.C,TH1*%
X127480000Y-137410000D03*
X127480000Y-139060000D03*
%TD*%
D34*
%TO.C,U5*%
X135200000Y-119842500D03*
X135700000Y-119842500D03*
X136200000Y-119842500D03*
X136700000Y-119842500D03*
X137200000Y-119842500D03*
X137700000Y-119842500D03*
X138200000Y-119842500D03*
X138700000Y-119842500D03*
X139200000Y-119842500D03*
X139700000Y-119842500D03*
X140200000Y-119842500D03*
X140700000Y-119842500D03*
X141200000Y-119842500D03*
X141700000Y-119842500D03*
X142200000Y-119842500D03*
X142700000Y-119842500D03*
X143200000Y-119842500D03*
X143700000Y-119842500D03*
X144200000Y-119842500D03*
X144700000Y-119842500D03*
X145200000Y-119842500D03*
X145700000Y-119842500D03*
X146200000Y-119842500D03*
X146700000Y-119842500D03*
X147200000Y-119842500D03*
X147700000Y-119842500D03*
X148200000Y-119842500D03*
X148700000Y-119842500D03*
X149200000Y-119842500D03*
X149700000Y-119842500D03*
X150200000Y-119842500D03*
X150700000Y-119842500D03*
X151200000Y-119842500D03*
X151700000Y-119842500D03*
X152200000Y-119842500D03*
X152700000Y-119842500D03*
D35*
X154612500Y-117930000D03*
X154612500Y-117430000D03*
X154612500Y-116930000D03*
X154612500Y-116430000D03*
X154612500Y-115930000D03*
X154612500Y-115430000D03*
X154612500Y-114930000D03*
X154612500Y-114430000D03*
X154612500Y-113930000D03*
X154612500Y-113430000D03*
X154612500Y-112930000D03*
X154612500Y-112430000D03*
X154612500Y-111930000D03*
X154612500Y-111430000D03*
X154612500Y-110930000D03*
X154612500Y-110430000D03*
X154612500Y-109930000D03*
X154612500Y-109430000D03*
X154612500Y-108930000D03*
X154612500Y-108430000D03*
X154612500Y-107930000D03*
X154612500Y-107430000D03*
X154612500Y-106930000D03*
X154612500Y-106430000D03*
X154612500Y-105930000D03*
X154612500Y-105430000D03*
X154612500Y-104930000D03*
X154612500Y-104430000D03*
X154612500Y-103930000D03*
X154612500Y-103430000D03*
X154612500Y-102930000D03*
X154612500Y-102430000D03*
X154612500Y-101930000D03*
X154612500Y-101430000D03*
X154612500Y-100930000D03*
X154612500Y-100430000D03*
D34*
X152700000Y-98517500D03*
X152200000Y-98517500D03*
X151700000Y-98517500D03*
X151200000Y-98517500D03*
X150700000Y-98517500D03*
X150200000Y-98517500D03*
X149700000Y-98517500D03*
X149200000Y-98517500D03*
X148700000Y-98517500D03*
X148200000Y-98517500D03*
X147700000Y-98517500D03*
X147200000Y-98517500D03*
X146700000Y-98517500D03*
X146200000Y-98517500D03*
X145700000Y-98517500D03*
X145200000Y-98517500D03*
X144700000Y-98517500D03*
X144200000Y-98517500D03*
X143700000Y-98517500D03*
X143200000Y-98517500D03*
X142700000Y-98517500D03*
X142200000Y-98517500D03*
X141700000Y-98517500D03*
X141200000Y-98517500D03*
X140700000Y-98517500D03*
X140200000Y-98517500D03*
X139700000Y-98517500D03*
X139200000Y-98517500D03*
X138700000Y-98517500D03*
X138200000Y-98517500D03*
X137700000Y-98517500D03*
X137200000Y-98517500D03*
X136700000Y-98517500D03*
X136200000Y-98517500D03*
X135700000Y-98517500D03*
X135200000Y-98517500D03*
D35*
X133287500Y-100430000D03*
X133287500Y-100930000D03*
X133287500Y-101430000D03*
X133287500Y-101930000D03*
X133287500Y-102430000D03*
X133287500Y-102930000D03*
X133287500Y-103430000D03*
X133287500Y-103930000D03*
X133287500Y-104430000D03*
X133287500Y-104930000D03*
X133287500Y-105430000D03*
X133287500Y-105930000D03*
X133287500Y-106430000D03*
X133287500Y-106930000D03*
X133287500Y-107430000D03*
X133287500Y-107930000D03*
X133287500Y-108430000D03*
X133287500Y-108930000D03*
X133287500Y-109430000D03*
X133287500Y-109930000D03*
X133287500Y-110430000D03*
X133287500Y-110930000D03*
X133287500Y-111430000D03*
X133287500Y-111930000D03*
X133287500Y-112430000D03*
X133287500Y-112930000D03*
X133287500Y-113430000D03*
X133287500Y-113930000D03*
X133287500Y-114430000D03*
X133287500Y-114930000D03*
X133287500Y-115430000D03*
X133287500Y-115930000D03*
X133287500Y-116430000D03*
X133287500Y-116930000D03*
X133287500Y-117430000D03*
X133287500Y-117930000D03*
%TD*%
D18*
%TO.C,R29*%
X107825000Y-85800000D03*
X106175000Y-85800000D03*
%TD*%
D17*
%TO.C,TP15*%
X113170000Y-138880000D03*
%TD*%
D20*
%TO.C,R80*%
X188217249Y-81328500D03*
X188217249Y-79678500D03*
%TD*%
D36*
%TO.C,Q8*%
X182440000Y-78050000D03*
X184340000Y-78050000D03*
X183390000Y-76175000D03*
%TD*%
D37*
%TO.C,U13*%
X143020000Y-72470000D03*
X143020000Y-73120000D03*
X143020000Y-73770000D03*
X144820000Y-73770000D03*
X144820000Y-73120000D03*
X144820000Y-72470000D03*
%TD*%
D17*
%TO.C,TP9*%
X175130000Y-77140000D03*
%TD*%
D15*
%TO.C,C27*%
X143265000Y-96520000D03*
X141715000Y-96520000D03*
%TD*%
D38*
%TO.C,C9*%
X110490000Y-130770000D03*
X110490000Y-132320000D03*
%TD*%
D18*
%TO.C,R30*%
X108925000Y-90900000D03*
X107275000Y-90900000D03*
%TD*%
D39*
%TO.C,J6*%
X193520000Y-109220000D03*
D40*
X190980000Y-111760000D03*
X190980000Y-106680000D03*
X196060000Y-111760000D03*
X196060000Y-106680000D03*
%TD*%
D41*
%TO.C,C12*%
X136030000Y-139490000D03*
X134130000Y-139490000D03*
%TD*%
D18*
%TO.C,R88*%
X192440000Y-123550000D03*
X190790000Y-123550000D03*
%TD*%
D20*
%TO.C,R10*%
X135950000Y-134665000D03*
X135950000Y-133015000D03*
%TD*%
D30*
%TO.C,J14*%
X169540000Y-73250000D03*
D31*
X167000000Y-73250000D03*
X164460000Y-73250000D03*
X161920000Y-73250000D03*
X159380000Y-73250000D03*
X156840000Y-73250000D03*
X154300000Y-73250000D03*
X151760000Y-73250000D03*
%TD*%
D21*
%TO.C,R75*%
X181240000Y-79770000D03*
X181240000Y-81420000D03*
%TD*%
D42*
%TO.C,U8*%
X176955000Y-98010000D03*
X177955000Y-98010000D03*
X178955000Y-98010000D03*
X179955000Y-98010000D03*
X180955000Y-98010000D03*
X181955000Y-98010000D03*
X182955000Y-98010000D03*
X183955000Y-98010000D03*
X184955000Y-98010000D03*
X185955000Y-98010000D03*
X186955000Y-98010000D03*
X187955000Y-98010000D03*
D43*
X190090000Y-90055000D03*
X190090000Y-89055000D03*
X190090000Y-88055000D03*
X190090000Y-87055000D03*
D42*
X187955000Y-83210000D03*
X186955000Y-83210000D03*
X185955000Y-83210000D03*
X180955000Y-83210000D03*
X179955000Y-83210000D03*
X178955000Y-83210000D03*
X177955000Y-83210000D03*
X176955000Y-83210000D03*
D43*
X175290000Y-87055000D03*
X175290000Y-88055000D03*
X175290000Y-89055000D03*
X175290000Y-90055000D03*
X175290000Y-91055000D03*
X175290000Y-92055000D03*
X175290000Y-93055000D03*
X175290000Y-94055000D03*
%TD*%
D16*
%TO.C,C46*%
X136095000Y-126400000D03*
X137645000Y-126400000D03*
%TD*%
%TO.C,C39*%
X148580000Y-125930000D03*
X150130000Y-125930000D03*
%TD*%
D36*
%TO.C,Q7*%
X185850000Y-77930000D03*
X187750000Y-77930000D03*
X186800000Y-76055000D03*
%TD*%
D23*
%TO.C,C20*%
X151960000Y-131800000D03*
X151960000Y-133700000D03*
%TD*%
D21*
%TO.C,R54*%
X165240000Y-91800000D03*
X165240000Y-93450000D03*
%TD*%
D38*
%TO.C,C92*%
X131740000Y-130380000D03*
X131740000Y-131930000D03*
%TD*%
D17*
%TO.C,TP6*%
X145770000Y-130180000D03*
%TD*%
D44*
%TO.C,J8*%
X179900000Y-141950000D03*
D45*
X184900000Y-141950000D03*
%TD*%
D20*
%TO.C,R70*%
X122677500Y-94272500D03*
X122677500Y-92622500D03*
%TD*%
%TO.C,R93*%
X130190000Y-131980000D03*
X130190000Y-130330000D03*
%TD*%
D15*
%TO.C,C55*%
X107775000Y-84200000D03*
X106225000Y-84200000D03*
%TD*%
D46*
%TO.C,U14*%
X115540000Y-112180000D03*
X115540000Y-111780000D03*
X115540000Y-111380000D03*
X115540000Y-110980000D03*
X115540000Y-110580000D03*
X115540000Y-110180000D03*
X115540000Y-109780000D03*
X115540000Y-109380000D03*
X114115000Y-109380000D03*
X114115000Y-109780000D03*
X114115000Y-110180000D03*
X114115000Y-110580000D03*
X114115000Y-110980000D03*
X114115000Y-111380000D03*
X114115000Y-111780000D03*
X114115000Y-112180000D03*
D47*
X114827500Y-110780000D03*
%TD*%
D21*
%TO.C,R78*%
X125410000Y-119427594D03*
X125410000Y-121077594D03*
%TD*%
D16*
%TO.C,C26*%
X129430000Y-111450000D03*
X130980000Y-111450000D03*
%TD*%
D21*
%TO.C,R17*%
X144130000Y-92835000D03*
X144130000Y-94485000D03*
%TD*%
D41*
%TO.C,C6*%
X124540000Y-142390000D03*
X122640000Y-142390000D03*
%TD*%
D17*
%TO.C,TP4*%
X122720000Y-131615000D03*
%TD*%
D18*
%TO.C,R84*%
X136020000Y-127960000D03*
X134370000Y-127960000D03*
%TD*%
D14*
%TO.C,R77*%
X116048809Y-95795799D03*
X117698809Y-95795799D03*
%TD*%
D21*
%TO.C,R69*%
X193500000Y-80970000D03*
X193500000Y-82620000D03*
%TD*%
D17*
%TO.C,TP1*%
X110570000Y-134065000D03*
%TD*%
D25*
%TO.C,D13*%
X190242500Y-78850000D03*
X191817500Y-78850000D03*
%TD*%
D48*
%TO.C,U15*%
X165960000Y-108290000D03*
X165960000Y-109560000D03*
X165960000Y-110830000D03*
X165960000Y-112100000D03*
X165960000Y-113370000D03*
X165960000Y-114640000D03*
X165960000Y-115910000D03*
X165960000Y-117180000D03*
X175260000Y-117180000D03*
X175260000Y-115910000D03*
X175260000Y-114640000D03*
X175260000Y-113370000D03*
X175260000Y-112100000D03*
X175260000Y-110830000D03*
X175260000Y-109560000D03*
X175260000Y-108290000D03*
%TD*%
D20*
%TO.C,R81*%
X182770000Y-81420000D03*
X182770000Y-79770000D03*
%TD*%
D14*
%TO.C,R94*%
X109790000Y-140460000D03*
X111440000Y-140460000D03*
%TD*%
D17*
%TO.C,TP2*%
X114975000Y-132330000D03*
%TD*%
D49*
%TO.C,U11*%
X99110000Y-100710000D03*
X99910000Y-100710000D03*
X100710000Y-100710000D03*
X100710000Y-98410000D03*
X99910000Y-98410000D03*
X99110000Y-98410000D03*
%TD*%
D50*
%TO.C,L1*%
X137955000Y-140750000D03*
X140325000Y-140750000D03*
%TD*%
D18*
%TO.C,R66*%
X116360000Y-120167594D03*
X114710000Y-120167594D03*
%TD*%
%TO.C,R53*%
X161100000Y-89040000D03*
X159450000Y-89040000D03*
%TD*%
D16*
%TO.C,C86*%
X163580000Y-127340000D03*
X165130000Y-127340000D03*
%TD*%
D38*
%TO.C,C83*%
X134350000Y-131480000D03*
X134350000Y-133030000D03*
%TD*%
D51*
%TO.C,C71*%
X148120000Y-141960000D03*
X145170000Y-141960000D03*
%TD*%
D52*
%TO.C,U6*%
X125095000Y-116570000D03*
X125095000Y-115300000D03*
X125095000Y-114030000D03*
X125095000Y-112760000D03*
X120145000Y-112760000D03*
X120145000Y-114030000D03*
X120145000Y-115300000D03*
X120145000Y-116570000D03*
%TD*%
D16*
%TO.C,C33*%
X131015000Y-98670000D03*
X132565000Y-98670000D03*
%TD*%
D17*
%TO.C,TP10*%
X107200000Y-92800000D03*
%TD*%
D53*
%TO.C,D5*%
X146135000Y-89890000D03*
D54*
X145250000Y-89890000D03*
%TD*%
D12*
%TO.C,SW5*%
X187750000Y-133850000D03*
X187750000Y-127350000D03*
X192250000Y-133850000D03*
X192250000Y-127350000D03*
%TD*%
D18*
%TO.C,R23*%
X160625000Y-103660000D03*
X158975000Y-103660000D03*
%TD*%
D22*
%TO.C,H1*%
X194840000Y-143330000D03*
%TD*%
D18*
%TO.C,R28*%
X113425000Y-92800000D03*
X111775000Y-92800000D03*
%TD*%
D55*
%TO.C,C30*%
X156953410Y-118492075D03*
X156953410Y-116942075D03*
%TD*%
D15*
%TO.C,C81*%
X193470000Y-136260000D03*
X191920000Y-136260000D03*
%TD*%
%TO.C,C84*%
X131540000Y-121710000D03*
X129990000Y-121710000D03*
%TD*%
D20*
%TO.C,R92*%
X113460000Y-142250000D03*
X113460000Y-140600000D03*
%TD*%
D38*
%TO.C,C34*%
X157126009Y-103895334D03*
X157126009Y-105445334D03*
%TD*%
D56*
%TO.C,BZ1*%
X159920000Y-81450000D03*
D57*
X153420000Y-81450000D03*
%TD*%
D58*
%TO.C,FB1*%
X108621999Y-132393000D03*
X107046999Y-132393000D03*
%TD*%
D18*
%TO.C,R61*%
X160805000Y-108130000D03*
X159155000Y-108130000D03*
%TD*%
D20*
%TO.C,R57*%
X162440000Y-108105000D03*
X162440000Y-106455000D03*
%TD*%
D59*
%TO.C,J2*%
X116490000Y-140007500D03*
D60*
X118490000Y-140007500D03*
%TD*%
D20*
%TO.C,R3*%
X132200000Y-137570000D03*
X132200000Y-135920000D03*
%TD*%
D58*
%TO.C,D11*%
X119587500Y-120197594D03*
X118012500Y-120197594D03*
%TD*%
D21*
%TO.C,R26*%
X179710000Y-99975000D03*
X179710000Y-101625000D03*
%TD*%
D16*
%TO.C,C72*%
X146570000Y-143890000D03*
X148120000Y-143890000D03*
%TD*%
D61*
%TO.C,Q5*%
X123620000Y-121177594D03*
X123620000Y-119277594D03*
X121745000Y-120227594D03*
%TD*%
D62*
%TO.C,C8*%
X122730000Y-129545000D03*
X124630000Y-129545000D03*
%TD*%
D38*
%TO.C,C74*%
X157890000Y-141470000D03*
X157890000Y-143020000D03*
%TD*%
D21*
%TO.C,R64*%
X121797500Y-105012500D03*
X121797500Y-106662500D03*
%TD*%
D13*
%TO.C,C70*%
X141120000Y-72495000D03*
X141120000Y-75445000D03*
%TD*%
D19*
%TO.C,C47*%
X177090000Y-77140000D03*
X180040000Y-77140000D03*
%TD*%
D63*
%TO.C,D15*%
X130832500Y-122980000D03*
X131672500Y-122980000D03*
%TD*%
D64*
%TO.C,C73*%
X159970000Y-142980000D03*
X159970000Y-140030000D03*
%TD*%
D30*
%TO.C,J5*%
X136880000Y-73360000D03*
D31*
X136880000Y-75900000D03*
X136880000Y-78440000D03*
X136880000Y-80980000D03*
X136880000Y-83520000D03*
X136880000Y-86060000D03*
X136880000Y-88600000D03*
X136880000Y-91140000D03*
%TD*%
D13*
%TO.C,C3*%
X117300000Y-134250000D03*
X117300000Y-137200000D03*
%TD*%
D22*
%TO.C,H3*%
X101160000Y-74650000D03*
%TD*%
D15*
%TO.C,C64*%
X107250000Y-105230000D03*
X105700000Y-105230000D03*
%TD*%
D65*
%TO.C,J1*%
X104050000Y-127185000D03*
X104050000Y-132965000D03*
D66*
X105125000Y-126875000D03*
X105125000Y-127675000D03*
D67*
X105125000Y-128825000D03*
X105125000Y-129825000D03*
X105125000Y-130325000D03*
X105125000Y-131325000D03*
D66*
X105125000Y-132475000D03*
X105125000Y-133275000D03*
X105125000Y-133275000D03*
X105125000Y-132475000D03*
D67*
X105125000Y-131825000D03*
X105125000Y-130825000D03*
X105125000Y-129325000D03*
X105125000Y-128325000D03*
D66*
X105125000Y-127675000D03*
X105125000Y-126875000D03*
D68*
X104550000Y-124965000D03*
X100620000Y-124965000D03*
X104550000Y-135185000D03*
X100620000Y-135185000D03*
%TD*%
D15*
%TO.C,C45*%
X141505000Y-126390000D03*
X139955000Y-126390000D03*
%TD*%
D69*
%TO.C,Q3*%
X122730000Y-97550000D03*
X120830000Y-97550000D03*
X121780000Y-99425000D03*
%TD*%
D19*
%TO.C,C77*%
X165325000Y-95335000D03*
X168275000Y-95335000D03*
%TD*%
D15*
%TO.C,C14*%
X137505000Y-136150000D03*
X135955000Y-136150000D03*
%TD*%
D14*
%TO.C,R68*%
X193640000Y-78880000D03*
X195290000Y-78880000D03*
%TD*%
D25*
%TO.C,FB3*%
X171612500Y-77180000D03*
X173187500Y-77180000D03*
%TD*%
D17*
%TO.C,TP3*%
X124330000Y-137660000D03*
%TD*%
D38*
%TO.C,C32*%
X131500000Y-104885000D03*
X131500000Y-106435000D03*
%TD*%
D62*
%TO.C,C48*%
X176995000Y-79390000D03*
X178895000Y-79390000D03*
%TD*%
D13*
%TO.C,C50*%
X105800000Y-79125000D03*
X105800000Y-82075000D03*
%TD*%
D21*
%TO.C,R86*%
X163640000Y-128870000D03*
X163640000Y-130520000D03*
%TD*%
D14*
%TO.C,R12*%
X128225000Y-117470000D03*
X129875000Y-117470000D03*
%TD*%
D20*
%TO.C,R2*%
X130680000Y-137570000D03*
X130680000Y-135920000D03*
%TD*%
D15*
%TO.C,C36*%
X153620000Y-125910000D03*
X152070000Y-125910000D03*
%TD*%
D11*
%TO.C,C54*%
X187873783Y-103877113D03*
X186913783Y-103877113D03*
%TD*%
D16*
%TO.C,C41*%
X144610000Y-88430000D03*
X146160000Y-88430000D03*
%TD*%
D70*
%TO.C,D2*%
X129083552Y-139221462D03*
X129083552Y-140796462D03*
%TD*%
D15*
%TO.C,C88*%
X192420000Y-125060000D03*
X190870000Y-125060000D03*
%TD*%
D20*
%TO.C,R83*%
X134420000Y-126520000D03*
X134420000Y-124870000D03*
%TD*%
D21*
%TO.C,R79*%
X125470000Y-123377594D03*
X125470000Y-125027594D03*
%TD*%
D22*
%TO.C,H4*%
X101010000Y-143360000D03*
%TD*%
D71*
%TO.C,MK2*%
X155410000Y-145120000D03*
D72*
X154510000Y-143046000D03*
X154510000Y-143868000D03*
D73*
X156072000Y-145120000D03*
D72*
X156310000Y-143868000D03*
X156310000Y-143046000D03*
X155410000Y-143046000D03*
%TD*%
D61*
%TO.C,Q6*%
X123590000Y-125127594D03*
X123590000Y-123227594D03*
X121715000Y-124177594D03*
%TD*%
D17*
%TO.C,TP5*%
X143410000Y-133320000D03*
%TD*%
D14*
%TO.C,R21*%
X128265000Y-93140000D03*
X129915000Y-93140000D03*
%TD*%
D55*
%TO.C,C35*%
X153780000Y-133305000D03*
X153780000Y-131755000D03*
%TD*%
D18*
%TO.C,R15*%
X113625000Y-130820000D03*
X111975000Y-130820000D03*
%TD*%
D38*
%TO.C,C80*%
X177700000Y-111015000D03*
X177700000Y-112565000D03*
%TD*%
D74*
%TO.C,U1*%
X125115000Y-135757500D03*
X125615000Y-135757500D03*
X126115000Y-135757500D03*
X126615000Y-135757500D03*
X127115000Y-135757500D03*
D75*
X128052500Y-134820000D03*
X128052500Y-134320000D03*
X128052500Y-133820000D03*
X128052500Y-133320000D03*
X128052500Y-132820000D03*
D74*
X127115000Y-131882500D03*
X126615000Y-131882500D03*
X126115000Y-131882500D03*
X125615000Y-131882500D03*
X125115000Y-131882500D03*
D75*
X124177500Y-132820000D03*
X124177500Y-133320000D03*
X124177500Y-133820000D03*
X124177500Y-134320000D03*
X124177500Y-134820000D03*
D76*
X126115000Y-133820000D03*
%TD*%
D70*
%TO.C,D3*%
X130620000Y-139222500D03*
X130620000Y-140797500D03*
%TD*%
D19*
%TO.C,C68*%
X100765000Y-92380000D03*
X103715000Y-92380000D03*
%TD*%
D51*
%TO.C,C7*%
X124835000Y-140190000D03*
X121885000Y-140190000D03*
%TD*%
D15*
%TO.C,C91*%
X111390000Y-138930000D03*
X109840000Y-138930000D03*
%TD*%
D20*
%TO.C,R71*%
X117598645Y-94281872D03*
X117598645Y-92631872D03*
%TD*%
D14*
%TO.C,R55*%
X166705000Y-90070000D03*
X168355000Y-90070000D03*
%TD*%
D18*
%TO.C,R11*%
X153730000Y-127550000D03*
X152080000Y-127550000D03*
%TD*%
%TO.C,R58*%
X162535000Y-112870000D03*
X160885000Y-112870000D03*
%TD*%
D70*
%TO.C,D10*%
X116880000Y-101672812D03*
X116880000Y-103247812D03*
%TD*%
D55*
%TO.C,C31*%
X142570000Y-123775000D03*
X142570000Y-122225000D03*
%TD*%
D21*
%TO.C,R47*%
X148680000Y-73195000D03*
X148680000Y-74845000D03*
%TD*%
D13*
%TO.C,C21*%
X149730000Y-131825000D03*
X149730000Y-134775000D03*
%TD*%
D30*
%TO.C,J4*%
X196150000Y-100020000D03*
D31*
X196150000Y-97480000D03*
X196150000Y-94940000D03*
X196150000Y-92400000D03*
X196150000Y-89860000D03*
X196150000Y-87320000D03*
X196150000Y-84780000D03*
X196150000Y-82240000D03*
%TD*%
D71*
%TO.C,MK1*%
X151010000Y-145132000D03*
D72*
X150110000Y-143058000D03*
X150110000Y-143880000D03*
D73*
X151672000Y-145132000D03*
D72*
X151910000Y-143880000D03*
X151910000Y-143058000D03*
X151010000Y-143058000D03*
%TD*%
D15*
%TO.C,C17*%
X137515000Y-137690000D03*
X135965000Y-137690000D03*
%TD*%
D18*
%TO.C,R14*%
X113645000Y-129100000D03*
X111995000Y-129100000D03*
%TD*%
D14*
%TO.C,R73*%
X127060000Y-124977594D03*
X128710000Y-124977594D03*
%TD*%
D38*
%TO.C,C28*%
X147270000Y-94875000D03*
X147270000Y-96425000D03*
%TD*%
D16*
%TO.C,C49*%
X176970000Y-81170000D03*
X178520000Y-81170000D03*
%TD*%
D58*
%TO.C,D12*%
X119587500Y-124133549D03*
X118012500Y-124133549D03*
%TD*%
D15*
%TO.C,C65*%
X107250000Y-117690000D03*
X105700000Y-117690000D03*
%TD*%
D21*
%TO.C,R87*%
X179080000Y-128800000D03*
X179080000Y-130450000D03*
%TD*%
D16*
%TO.C,C23*%
X148160000Y-122380000D03*
X149710000Y-122380000D03*
%TD*%
D77*
%TO.C,U2*%
X106980000Y-129415000D03*
X106980000Y-130715000D03*
X108980000Y-130065000D03*
%TD*%
D38*
%TO.C,C2*%
X114800000Y-134180000D03*
X114800000Y-135730000D03*
%TD*%
D70*
%TO.C,D4*%
X132151829Y-139228015D03*
X132151829Y-140803015D03*
%TD*%
D20*
%TO.C,R8*%
X108650000Y-127690000D03*
X108650000Y-126040000D03*
%TD*%
D19*
%TO.C,C63*%
X105750000Y-103290000D03*
X108700000Y-103290000D03*
%TD*%
D20*
%TO.C,R1*%
X129150000Y-137570000D03*
X129150000Y-135920000D03*
%TD*%
D78*
%TO.C,C11*%
X107150000Y-137055000D03*
X107150000Y-135155000D03*
%TD*%
D13*
%TO.C,C16*%
X142630000Y-135205000D03*
X142630000Y-138155000D03*
%TD*%
D20*
%TO.C,R91*%
X131800000Y-128900000D03*
X131800000Y-127250000D03*
%TD*%
D12*
%TO.C,SW4*%
X172200000Y-133850000D03*
X172200000Y-127350000D03*
X176700000Y-133850000D03*
X176700000Y-127350000D03*
%TD*%
D79*
%TO.C,J3*%
X159480000Y-91410000D03*
D17*
X159480000Y-92680000D03*
X158210000Y-91410000D03*
X158210000Y-92680000D03*
X156940000Y-91410000D03*
X156940000Y-92680000D03*
X155670000Y-91410000D03*
X155670000Y-92680000D03*
X154400000Y-91410000D03*
X154400000Y-92680000D03*
X153130000Y-91410000D03*
X153130000Y-92680000D03*
X151860000Y-91410000D03*
X151860000Y-92680000D03*
%TD*%
D38*
%TO.C,C29*%
X157050000Y-98175000D03*
X157050000Y-99725000D03*
%TD*%
D21*
%TO.C,R16*%
X145750000Y-92825000D03*
X145750000Y-94475000D03*
%TD*%
D14*
%TO.C,R48*%
X144755000Y-76320000D03*
X146405000Y-76320000D03*
%TD*%
D55*
%TO.C,C22*%
X136880000Y-123455000D03*
X136880000Y-121905000D03*
%TD*%
D38*
%TO.C,C89*%
X130240000Y-127300000D03*
X130240000Y-128850000D03*
%TD*%
D16*
%TO.C,C37*%
X152060000Y-124370000D03*
X153610000Y-124370000D03*
%TD*%
D14*
%TO.C,R27*%
X130795000Y-81750000D03*
X132445000Y-81750000D03*
%TD*%
D20*
%TO.C,R7*%
X107120000Y-127690000D03*
X107120000Y-126040000D03*
%TD*%
%TO.C,R51*%
X155390000Y-141165000D03*
X155390000Y-139515000D03*
%TD*%
D80*
%TO.C,XTAL1*%
X140025000Y-128460000D03*
X137615000Y-128460000D03*
%TD*%
D81*
%TO.C,J10*%
X102850000Y-82767500D03*
D82*
X102850000Y-84267500D03*
X102850000Y-85767500D03*
X102850000Y-87267500D03*
X102850000Y-88767500D03*
%TD*%
D55*
%TO.C,C25*%
X131340000Y-120260000D03*
X131340000Y-118710000D03*
%TD*%
D51*
%TO.C,C38*%
X150217500Y-127920000D03*
X147267500Y-127920000D03*
%TD*%
D14*
%TO.C,R59*%
X179435000Y-109770000D03*
X181085000Y-109770000D03*
%TD*%
D55*
%TO.C,C10*%
X110490000Y-129080000D03*
X110490000Y-127530000D03*
%TD*%
D17*
%TO.C,TP7*%
X153800000Y-130000000D03*
%TD*%
D15*
%TO.C,C67*%
X102205000Y-96730000D03*
X100655000Y-96730000D03*
%TD*%
D21*
%TO.C,R49*%
X146460000Y-73175000D03*
X146460000Y-74825000D03*
%TD*%
D17*
%TO.C,TP12*%
X132100000Y-124660000D03*
%TD*%
D16*
%TO.C,C42*%
X145145000Y-121680000D03*
X146695000Y-121680000D03*
%TD*%
D20*
%TO.C,R50*%
X150980000Y-141165000D03*
X150980000Y-139515000D03*
%TD*%
D51*
%TO.C,C82*%
X193440000Y-138240000D03*
X190490000Y-138240000D03*
%TD*%
D13*
%TO.C,C5*%
X121680000Y-134270000D03*
X121680000Y-137220000D03*
%TD*%
D18*
%TO.C,R4*%
X128755000Y-128885000D03*
X127105000Y-128885000D03*
%TD*%
D38*
%TO.C,C90*%
X135310000Y-121920000D03*
X135310000Y-123470000D03*
%TD*%
D21*
%TO.C,R18*%
X142510000Y-92845000D03*
X142510000Y-94495000D03*
%TD*%
D14*
%TO.C,R6*%
X108845000Y-137065000D03*
X110495000Y-137065000D03*
%TD*%
D17*
%TO.C,TP14*%
X127410000Y-122930000D03*
%TD*%
D83*
%TO.C,S1*%
X146120000Y-79740000D03*
D84*
X146120000Y-86240000D03*
X141620000Y-79740000D03*
X141620000Y-86240000D03*
%TD*%
D61*
%TO.C,Q1*%
X164867500Y-89982500D03*
X164867500Y-88082500D03*
X162992500Y-89032500D03*
%TD*%
D30*
%TO.C,J7*%
X188710000Y-73260000D03*
D31*
X186170000Y-73260000D03*
X183630000Y-73260000D03*
X181090000Y-73260000D03*
X178550000Y-73260000D03*
X176010000Y-73260000D03*
X173470000Y-73260000D03*
%TD*%
D14*
%TO.C,R76*%
X121012500Y-95727500D03*
X122662500Y-95727500D03*
%TD*%
D38*
%TO.C,C51*%
X107800000Y-79125000D03*
X107800000Y-80675000D03*
%TD*%
D18*
%TO.C,R67*%
X116360000Y-124150000D03*
X114710000Y-124150000D03*
%TD*%
D21*
%TO.C,R9*%
X137490000Y-133025000D03*
X137490000Y-134675000D03*
%TD*%
D19*
%TO.C,C43*%
X159155000Y-100160000D03*
X162105000Y-100160000D03*
%TD*%
D85*
%TO.C,U12*%
X108560000Y-114030000D03*
X108560000Y-112780000D03*
X108560000Y-111530000D03*
X108560000Y-110280000D03*
X108560000Y-109030000D03*
D86*
X106910000Y-107380000D03*
X105660000Y-107380000D03*
X104410000Y-107380000D03*
X103160000Y-107380000D03*
X101910000Y-107380000D03*
D85*
X100260000Y-109030000D03*
X100260000Y-110280000D03*
X100260000Y-111530000D03*
X100260000Y-112780000D03*
X100260000Y-114030000D03*
D86*
X101910000Y-115680000D03*
X103160000Y-115680000D03*
X104410000Y-115680000D03*
X105660000Y-115680000D03*
X106910000Y-115680000D03*
D87*
X104410000Y-111530000D03*
%TD*%
D14*
%TO.C,R89*%
X124970000Y-127060000D03*
X126620000Y-127060000D03*
%TD*%
%TO.C,R13*%
X128210000Y-115320000D03*
X129860000Y-115320000D03*
%TD*%
D55*
%TO.C,C24*%
X156630000Y-112185000D03*
X156630000Y-110635000D03*
%TD*%
D14*
%TO.C,R56*%
X166715000Y-88120000D03*
X168365000Y-88120000D03*
%TD*%
D25*
%TO.C,FB2*%
X148172500Y-130150000D03*
X149747500Y-130150000D03*
%TD*%
D16*
%TO.C,C87*%
X179050000Y-127320000D03*
X180600000Y-127320000D03*
%TD*%
D18*
%TO.C,R25*%
X160625000Y-102140000D03*
X158975000Y-102140000D03*
%TD*%
D13*
%TO.C,C1*%
X112830000Y-134080000D03*
X112830000Y-137030000D03*
%TD*%
D38*
%TO.C,C52*%
X173230000Y-86405000D03*
X173230000Y-87955000D03*
%TD*%
%TO.C,C79*%
X162490000Y-109755000D03*
X162490000Y-111305000D03*
%TD*%
D14*
%TO.C,R44*%
X99125000Y-102710000D03*
X100775000Y-102710000D03*
%TD*%
D70*
%TO.C,L2*%
X187900000Y-101032500D03*
X187900000Y-102607500D03*
%TD*%
D51*
%TO.C,C44*%
X132445000Y-96660000D03*
X129495000Y-96660000D03*
%TD*%
D21*
%TO.C,R65*%
X116880000Y-105055000D03*
X116880000Y-106705000D03*
%TD*%
D70*
%TO.C,D9*%
X121767500Y-101680000D03*
X121767500Y-103255000D03*
%TD*%
D18*
%TO.C,R5*%
X128755000Y-130415000D03*
X127105000Y-130415000D03*
%TD*%
D21*
%TO.C,R24*%
X181240000Y-99975000D03*
X181240000Y-101625000D03*
%TD*%
D69*
%TO.C,Q4*%
X117803809Y-97630799D03*
X115903809Y-97630799D03*
X116853809Y-99505799D03*
%TD*%
D20*
%TO.C,R43*%
X99150000Y-96445000D03*
X99150000Y-94795000D03*
%TD*%
D25*
%TO.C,FB4*%
X102112500Y-79000000D03*
X103687500Y-79000000D03*
%TD*%
D14*
%TO.C,R72*%
X126880000Y-121097594D03*
X128530000Y-121097594D03*
%TD*%
D44*
%TO.C,J9*%
X164440000Y-141917500D03*
D45*
X169440000Y-141917500D03*
%TD*%
M02*
