%TF.GenerationSoftware,KiCad,Pcbnew,9.0.2*%
%TF.CreationDate,2025-09-08T10:53:28+03:00*%
%TF.ProjectId,OpenAirScope,4f70656e-4169-4725-9363-6f70652e6b69,v0-Draft*%
%TF.SameCoordinates,Original*%
%TF.FileFunction,Paste,Bot*%
%TF.FilePolarity,Positive*%
%FSLAX46Y46*%
G04 Gerber Fmt 4.6, Leading zero omitted, Abs format (unit mm)*
G04 Created by KiCad (PCBNEW 9.0.2) date 2025-09-08 10:53:28*
%MOMM*%
%LPD*%
G01*
G04 APERTURE LIST*
G04 Aperture macros list*
%AMRoundRect*
0 Rectangle with rounded corners*
0 $1 Rounding radius*
0 $2 $3 $4 $5 $6 $7 $8 $9 X,Y pos of 4 corners*
0 Add a 4 corners polygon primitive as box body*
4,1,4,$2,$3,$4,$5,$6,$7,$8,$9,$2,$3,0*
0 Add four circle primitives for the rounded corners*
1,1,$1+$1,$2,$3*
1,1,$1+$1,$4,$5*
1,1,$1+$1,$6,$7*
1,1,$1+$1,$8,$9*
0 Add four rect primitives between the rounded corners*
20,1,$1+$1,$2,$3,$4,$5,0*
20,1,$1+$1,$4,$5,$6,$7,0*
20,1,$1+$1,$6,$7,$8,$9,0*
20,1,$1+$1,$8,$9,$2,$3,0*%
G04 Aperture macros list end*
%ADD10RoundRect,0.225000X-0.225000X-0.250000X0.225000X-0.250000X0.225000X0.250000X-0.225000X0.250000X0*%
%ADD11RoundRect,0.250000X0.325000X0.650000X-0.325000X0.650000X-0.325000X-0.650000X0.325000X-0.650000X0*%
%ADD12RoundRect,0.200000X0.200000X0.275000X-0.200000X0.275000X-0.200000X-0.275000X0.200000X-0.275000X0*%
%ADD13RoundRect,0.200000X0.275000X-0.200000X0.275000X0.200000X-0.275000X0.200000X-0.275000X-0.200000X0*%
%ADD14R,0.600000X1.300000*%
%ADD15RoundRect,0.250000X0.475000X-0.250000X0.475000X0.250000X-0.475000X0.250000X-0.475000X-0.250000X0*%
%ADD16RoundRect,0.150000X-0.825000X-0.150000X0.825000X-0.150000X0.825000X0.150000X-0.825000X0.150000X0*%
%ADD17RoundRect,0.250000X-0.650000X0.325000X-0.650000X-0.325000X0.650000X-0.325000X0.650000X0.325000X0*%
%ADD18RoundRect,0.225000X0.225000X0.250000X-0.225000X0.250000X-0.225000X-0.250000X0.225000X-0.250000X0*%
%ADD19RoundRect,0.250000X-0.325000X-0.650000X0.325000X-0.650000X0.325000X0.650000X-0.325000X0.650000X0*%
%ADD20RoundRect,0.150000X-0.150000X0.825000X-0.150000X-0.825000X0.150000X-0.825000X0.150000X0.825000X0*%
%ADD21RoundRect,0.225000X0.250000X-0.225000X0.250000X0.225000X-0.250000X0.225000X-0.250000X-0.225000X0*%
%ADD22RoundRect,0.150000X-0.150000X0.587500X-0.150000X-0.587500X0.150000X-0.587500X0.150000X0.587500X0*%
%ADD23R,1.200000X2.000000*%
%ADD24RoundRect,0.250000X-1.125000X1.275000X-1.125000X-1.275000X1.125000X-1.275000X1.125000X1.275000X0*%
%ADD25RoundRect,0.250000X-0.350000X0.850000X-0.350000X-0.850000X0.350000X-0.850000X0.350000X0.850000X0*%
%ADD26RoundRect,0.200000X-0.275000X0.200000X-0.275000X-0.200000X0.275000X-0.200000X0.275000X0.200000X0*%
%ADD27R,1.500000X0.800000*%
%ADD28R,2.000000X1.450000*%
G04 APERTURE END LIST*
D10*
%TO.C,C75*%
X102600000Y-121850000D03*
X104150000Y-121850000D03*
%TD*%
D11*
%TO.C,C57*%
X182875000Y-112967618D03*
X179925000Y-112967618D03*
%TD*%
D12*
%TO.C,R40*%
X167775000Y-126000000D03*
X166125000Y-126000000D03*
%TD*%
D13*
%TO.C,R46*%
X105562070Y-102180641D03*
X105562070Y-100530641D03*
%TD*%
D14*
%TO.C,D6*%
X181460000Y-137650000D03*
X183360000Y-137650000D03*
X182410000Y-139750000D03*
%TD*%
D12*
%TO.C,R37*%
X161975000Y-118950000D03*
X160325000Y-118950000D03*
%TD*%
D10*
%TO.C,C76*%
X102570000Y-120310000D03*
X104120000Y-120310000D03*
%TD*%
D12*
%TO.C,R36*%
X161975000Y-120450000D03*
X160325000Y-120450000D03*
%TD*%
%TO.C,R32*%
X183205000Y-136090000D03*
X181555000Y-136090000D03*
%TD*%
D15*
%TO.C,C60*%
X173600000Y-122850000D03*
X173600000Y-120950000D03*
%TD*%
D16*
%TO.C,U10*%
X164725000Y-122905000D03*
X164725000Y-121635000D03*
X164725000Y-120365000D03*
X164725000Y-119095000D03*
X169675000Y-119095000D03*
X169675000Y-120365000D03*
X169675000Y-121635000D03*
X169675000Y-122905000D03*
%TD*%
D17*
%TO.C,C19*%
X147530000Y-134225000D03*
X147530000Y-137175000D03*
%TD*%
D18*
%TO.C,C58*%
X182925000Y-114867618D03*
X181375000Y-114867618D03*
%TD*%
D19*
%TO.C,C18*%
X140575000Y-132070000D03*
X143525000Y-132070000D03*
%TD*%
D12*
%TO.C,R33*%
X166050000Y-124500000D03*
X164400000Y-124500000D03*
%TD*%
%TO.C,R41*%
X169475000Y-124500000D03*
X167825000Y-124500000D03*
%TD*%
D13*
%TO.C,R39*%
X186490000Y-131040000D03*
X186490000Y-129390000D03*
%TD*%
D20*
%TO.C,U9*%
X180595000Y-116925000D03*
X181865000Y-116925000D03*
X183135000Y-116925000D03*
X184405000Y-116925000D03*
X184405000Y-121875000D03*
X183135000Y-121875000D03*
X181865000Y-121875000D03*
X180595000Y-121875000D03*
%TD*%
D21*
%TO.C,C61*%
X171750000Y-122825000D03*
X171750000Y-121275000D03*
%TD*%
D22*
%TO.C,D7*%
X166050000Y-127862500D03*
X167950000Y-127862500D03*
X167000000Y-129737500D03*
%TD*%
D13*
%TO.C,R45*%
X102876209Y-102206618D03*
X102876209Y-100556618D03*
%TD*%
D23*
%TO.C,L3*%
X181030000Y-126543250D03*
X183570000Y-126543250D03*
X183570000Y-134043250D03*
X181030000Y-134043250D03*
%TD*%
D24*
%TO.C,U4*%
X144320000Y-139300000D03*
X141270000Y-139300000D03*
X144320000Y-142650000D03*
X141270000Y-142650000D03*
D25*
X140515000Y-134675000D03*
X142795000Y-134675000D03*
X145075000Y-134675000D03*
%TD*%
D26*
%TO.C,R38*%
X178700000Y-120075000D03*
X178700000Y-121725000D03*
%TD*%
D13*
%TO.C,R31*%
X178140000Y-131040000D03*
X178140000Y-129390000D03*
%TD*%
D18*
%TO.C,C59*%
X181675000Y-123900000D03*
X180125000Y-123900000D03*
%TD*%
D12*
%TO.C,R35*%
X162025000Y-123000000D03*
X160375000Y-123000000D03*
%TD*%
D27*
%TO.C,J11*%
X102665000Y-107865000D03*
X102665000Y-108965000D03*
X102665000Y-110065000D03*
X102665000Y-111165000D03*
X102665000Y-112265000D03*
X102665000Y-113365000D03*
X102665000Y-114465000D03*
X102665000Y-115565000D03*
D28*
X108365000Y-104190000D03*
X100065000Y-104190000D03*
X108365000Y-117940000D03*
X100065000Y-117940000D03*
%TD*%
D13*
%TO.C,R34*%
X177100000Y-121725000D03*
X177100000Y-120075000D03*
%TD*%
D18*
%TO.C,C62*%
X184775000Y-123900000D03*
X183225000Y-123900000D03*
%TD*%
M02*
