%TF.GenerationSoftware,KiCad,Pcbnew,9.0.2*%
%TF.CreationDate,2025-09-08T10:53:28+03:00*%
%TF.ProjectId,OpenAirScope,4f70656e-4169-4725-9363-6f70652e6b69,v0-Draft*%
%TF.SameCoordinates,Original*%
%TF.FileFunction,Soldermask,Bot*%
%TF.FilePolarity,Negative*%
%FSLAX46Y46*%
G04 Gerber Fmt 4.6, Leading zero omitted, Abs format (unit mm)*
G04 Created by KiCad (PCBNEW 9.0.2) date 2025-09-08 10:53:28*
%MOMM*%
%LPD*%
G01*
G04 APERTURE LIST*
G04 Aperture macros list*
%AMRoundRect*
0 Rectangle with rounded corners*
0 $1 Rounding radius*
0 $2 $3 $4 $5 $6 $7 $8 $9 X,Y pos of 4 corners*
0 Add a 4 corners polygon primitive as box body*
4,1,4,$2,$3,$4,$5,$6,$7,$8,$9,$2,$3,0*
0 Add four circle primitives for the rounded corners*
1,1,$1+$1,$2,$3*
1,1,$1+$1,$4,$5*
1,1,$1+$1,$6,$7*
1,1,$1+$1,$8,$9*
0 Add four rect primitives between the rounded corners*
20,1,$1+$1,$2,$3,$4,$5,0*
20,1,$1+$1,$4,$5,$6,$7,0*
20,1,$1+$1,$6,$7,$8,$9,0*
20,1,$1+$1,$8,$9,$2,$3,0*%
G04 Aperture macros list end*
%ADD10C,2.000000*%
%ADD11C,3.200000*%
%ADD12R,1.700000X1.700000*%
%ADD13C,1.700000*%
%ADD14C,2.529000*%
%ADD15C,2.679000*%
%ADD16RoundRect,0.250001X-0.799999X-0.799999X0.799999X-0.799999X0.799999X0.799999X-0.799999X0.799999X0*%
%ADD17C,2.100000*%
%ADD18R,1.600000X1.600000*%
%ADD19C,1.600000*%
%ADD20RoundRect,0.102000X-0.654000X-0.654000X0.654000X-0.654000X0.654000X0.654000X-0.654000X0.654000X0*%
%ADD21C,1.512000*%
%ADD22C,0.650000*%
%ADD23C,0.500000*%
%ADD24R,1.000000X1.000000*%
%ADD25C,1.000000*%
%ADD26RoundRect,0.102000X-0.619000X0.619000X-0.619000X-0.619000X0.619000X-0.619000X0.619000X0.619000X0*%
%ADD27C,1.442000*%
%ADD28R,2.200000X2.200000*%
%ADD29C,2.200000*%
%ADD30RoundRect,0.225000X-0.225000X-0.250000X0.225000X-0.250000X0.225000X0.250000X-0.225000X0.250000X0*%
%ADD31RoundRect,0.250000X0.325000X0.650000X-0.325000X0.650000X-0.325000X-0.650000X0.325000X-0.650000X0*%
%ADD32RoundRect,0.200000X0.200000X0.275000X-0.200000X0.275000X-0.200000X-0.275000X0.200000X-0.275000X0*%
%ADD33RoundRect,0.200000X0.275000X-0.200000X0.275000X0.200000X-0.275000X0.200000X-0.275000X-0.200000X0*%
%ADD34RoundRect,0.070000X-0.300000X0.650000X-0.300000X-0.650000X0.300000X-0.650000X0.300000X0.650000X0*%
%ADD35RoundRect,0.250000X0.475000X-0.250000X0.475000X0.250000X-0.475000X0.250000X-0.475000X-0.250000X0*%
%ADD36RoundRect,0.150000X-0.825000X-0.150000X0.825000X-0.150000X0.825000X0.150000X-0.825000X0.150000X0*%
%ADD37RoundRect,0.250000X-0.650000X0.325000X-0.650000X-0.325000X0.650000X-0.325000X0.650000X0.325000X0*%
%ADD38RoundRect,0.225000X0.225000X0.250000X-0.225000X0.250000X-0.225000X-0.250000X0.225000X-0.250000X0*%
%ADD39RoundRect,0.250000X-0.325000X-0.650000X0.325000X-0.650000X0.325000X0.650000X-0.325000X0.650000X0*%
%ADD40RoundRect,0.150000X-0.150000X0.825000X-0.150000X-0.825000X0.150000X-0.825000X0.150000X0.825000X0*%
%ADD41RoundRect,0.225000X0.250000X-0.225000X0.250000X0.225000X-0.250000X0.225000X-0.250000X-0.225000X0*%
%ADD42RoundRect,0.150000X-0.150000X0.587500X-0.150000X-0.587500X0.150000X-0.587500X0.150000X0.587500X0*%
%ADD43RoundRect,0.102000X-0.600000X1.000000X-0.600000X-1.000000X0.600000X-1.000000X0.600000X1.000000X0*%
%ADD44RoundRect,0.250000X-0.350000X0.850000X-0.350000X-0.850000X0.350000X-0.850000X0.350000X0.850000X0*%
%ADD45RoundRect,0.249997X-2.650003X2.950003X-2.650003X-2.950003X2.650003X-2.950003X2.650003X2.950003X0*%
%ADD46RoundRect,0.200000X-0.275000X0.200000X-0.275000X-0.200000X0.275000X-0.200000X0.275000X0.200000X0*%
%ADD47R,1.500000X0.800000*%
%ADD48R,2.000000X1.450000*%
G04 APERTURE END LIST*
D10*
%TO.C,SW3*%
X156750000Y-133850000D03*
X156750000Y-127350000D03*
X161250000Y-133850000D03*
X161250000Y-127350000D03*
%TD*%
D11*
%TO.C,H2*%
X194840000Y-74650000D03*
%TD*%
D12*
%TO.C,J13*%
X196100000Y-135560000D03*
D13*
X196100000Y-133020000D03*
X196100000Y-130480000D03*
X196100000Y-127940000D03*
X196100000Y-125400000D03*
X196100000Y-122860000D03*
X196100000Y-120320000D03*
%TD*%
D14*
%TO.C,J6*%
X193520000Y-109220000D03*
D15*
X190980000Y-111760000D03*
X190980000Y-106680000D03*
X196060000Y-111760000D03*
X196060000Y-106680000D03*
%TD*%
D12*
%TO.C,J14*%
X169540000Y-73250000D03*
D13*
X167000000Y-73250000D03*
X164460000Y-73250000D03*
X161920000Y-73250000D03*
X159380000Y-73250000D03*
X156840000Y-73250000D03*
X154300000Y-73250000D03*
X151760000Y-73250000D03*
%TD*%
D16*
%TO.C,J8*%
X179900000Y-141950000D03*
D17*
X184900000Y-141950000D03*
%TD*%
D10*
%TO.C,SW5*%
X187750000Y-133850000D03*
X187750000Y-127350000D03*
X192250000Y-133850000D03*
X192250000Y-127350000D03*
%TD*%
D11*
%TO.C,H1*%
X194840000Y-143330000D03*
%TD*%
D18*
%TO.C,BZ1*%
X159920000Y-81450000D03*
D19*
X153420000Y-81450000D03*
%TD*%
D20*
%TO.C,J2*%
X116490000Y-140007500D03*
D21*
X118490000Y-140007500D03*
%TD*%
D12*
%TO.C,J5*%
X136880000Y-73360000D03*
D13*
X136880000Y-75900000D03*
X136880000Y-78440000D03*
X136880000Y-80980000D03*
X136880000Y-83520000D03*
X136880000Y-86060000D03*
X136880000Y-88600000D03*
X136880000Y-91140000D03*
%TD*%
D11*
%TO.C,H3*%
X101160000Y-74650000D03*
%TD*%
D22*
%TO.C,J1*%
X104050000Y-127185000D03*
X104050000Y-132965000D03*
%TD*%
D11*
%TO.C,H4*%
X101010000Y-143360000D03*
%TD*%
D23*
%TO.C,MK2*%
X155410000Y-145120000D03*
%TD*%
D12*
%TO.C,J4*%
X196150000Y-100020000D03*
D13*
X196150000Y-97480000D03*
X196150000Y-94940000D03*
X196150000Y-92400000D03*
X196150000Y-89860000D03*
X196150000Y-87320000D03*
X196150000Y-84780000D03*
X196150000Y-82240000D03*
%TD*%
D23*
%TO.C,MK1*%
X151010000Y-145132000D03*
%TD*%
D10*
%TO.C,SW4*%
X172200000Y-133850000D03*
X172200000Y-127350000D03*
X176700000Y-133850000D03*
X176700000Y-127350000D03*
%TD*%
D24*
%TO.C,J3*%
X159480000Y-91410000D03*
D25*
X159480000Y-92680000D03*
X158210000Y-91410000D03*
X158210000Y-92680000D03*
X156940000Y-91410000D03*
X156940000Y-92680000D03*
X155670000Y-91410000D03*
X155670000Y-92680000D03*
X154400000Y-91410000D03*
X154400000Y-92680000D03*
X153130000Y-91410000D03*
X153130000Y-92680000D03*
X151860000Y-91410000D03*
X151860000Y-92680000D03*
%TD*%
D26*
%TO.C,J10*%
X102850000Y-82767500D03*
D27*
X102850000Y-84267500D03*
X102850000Y-85767500D03*
X102850000Y-87267500D03*
X102850000Y-88767500D03*
%TD*%
D28*
%TO.C,S1*%
X146120000Y-79740000D03*
D29*
X146120000Y-86240000D03*
X141620000Y-79740000D03*
X141620000Y-86240000D03*
%TD*%
D12*
%TO.C,J7*%
X188710000Y-73260000D03*
D13*
X186170000Y-73260000D03*
X183630000Y-73260000D03*
X181090000Y-73260000D03*
X178550000Y-73260000D03*
X176010000Y-73260000D03*
X173470000Y-73260000D03*
%TD*%
D16*
%TO.C,J9*%
X164440000Y-141917500D03*
D17*
X169440000Y-141917500D03*
%TD*%
D30*
%TO.C,C75*%
X102600000Y-121850000D03*
X104150000Y-121850000D03*
%TD*%
D31*
%TO.C,C57*%
X182875000Y-112967618D03*
X179925000Y-112967618D03*
%TD*%
D32*
%TO.C,R40*%
X167775000Y-126000000D03*
X166125000Y-126000000D03*
%TD*%
D33*
%TO.C,R46*%
X105562070Y-102180641D03*
X105562070Y-100530641D03*
%TD*%
D34*
%TO.C,D6*%
X181460000Y-137650000D03*
X183360000Y-137650000D03*
X182410000Y-139750000D03*
%TD*%
D32*
%TO.C,R37*%
X161975000Y-118950000D03*
X160325000Y-118950000D03*
%TD*%
D25*
%TO.C,TP16*%
X135770000Y-126470000D03*
%TD*%
D30*
%TO.C,C76*%
X102570000Y-120310000D03*
X104120000Y-120310000D03*
%TD*%
D32*
%TO.C,R36*%
X161975000Y-120450000D03*
X160325000Y-120450000D03*
%TD*%
%TO.C,R32*%
X183205000Y-136090000D03*
X181555000Y-136090000D03*
%TD*%
D35*
%TO.C,C60*%
X173600000Y-122850000D03*
X173600000Y-120950000D03*
%TD*%
D36*
%TO.C,U10*%
X164725000Y-122905000D03*
X164725000Y-121635000D03*
X164725000Y-120365000D03*
X164725000Y-119095000D03*
X169675000Y-119095000D03*
X169675000Y-120365000D03*
X169675000Y-121635000D03*
X169675000Y-122905000D03*
%TD*%
D37*
%TO.C,C19*%
X147530000Y-134225000D03*
X147530000Y-137175000D03*
%TD*%
D38*
%TO.C,C58*%
X182925000Y-114867618D03*
X181375000Y-114867618D03*
%TD*%
D39*
%TO.C,C18*%
X140575000Y-132070000D03*
X143525000Y-132070000D03*
%TD*%
D32*
%TO.C,R33*%
X166050000Y-124500000D03*
X164400000Y-124500000D03*
%TD*%
%TO.C,R41*%
X169475000Y-124500000D03*
X167825000Y-124500000D03*
%TD*%
D33*
%TO.C,R39*%
X186490000Y-131040000D03*
X186490000Y-129390000D03*
%TD*%
D40*
%TO.C,U9*%
X180595000Y-116925000D03*
X181865000Y-116925000D03*
X183135000Y-116925000D03*
X184405000Y-116925000D03*
X184405000Y-121875000D03*
X183135000Y-121875000D03*
X181865000Y-121875000D03*
X180595000Y-121875000D03*
%TD*%
D41*
%TO.C,C61*%
X171750000Y-122825000D03*
X171750000Y-121275000D03*
%TD*%
D42*
%TO.C,D7*%
X166050000Y-127862500D03*
X167950000Y-127862500D03*
X167000000Y-129737500D03*
%TD*%
D33*
%TO.C,R45*%
X102876209Y-102206618D03*
X102876209Y-100556618D03*
%TD*%
D43*
%TO.C,L3*%
X181030000Y-126543250D03*
X183570000Y-126543250D03*
X183570000Y-134043250D03*
X181030000Y-134043250D03*
%TD*%
D44*
%TO.C,U4*%
X140515000Y-134675000D03*
X142795000Y-134675000D03*
D45*
X142795000Y-140975000D03*
D44*
X145075000Y-134675000D03*
%TD*%
D46*
%TO.C,R38*%
X178700000Y-120075000D03*
X178700000Y-121725000D03*
%TD*%
D33*
%TO.C,R31*%
X178140000Y-131040000D03*
X178140000Y-129390000D03*
%TD*%
D38*
%TO.C,C59*%
X181675000Y-123900000D03*
X180125000Y-123900000D03*
%TD*%
D32*
%TO.C,R35*%
X162025000Y-123000000D03*
X160375000Y-123000000D03*
%TD*%
D47*
%TO.C,J11*%
X102665000Y-107865000D03*
X102665000Y-108965000D03*
X102665000Y-110065000D03*
X102665000Y-111165000D03*
X102665000Y-112265000D03*
X102665000Y-113365000D03*
X102665000Y-114465000D03*
X102665000Y-115565000D03*
D48*
X108365000Y-104190000D03*
X100065000Y-104190000D03*
X108365000Y-117940000D03*
X100065000Y-117940000D03*
%TD*%
D33*
%TO.C,R34*%
X177100000Y-121725000D03*
X177100000Y-120075000D03*
%TD*%
D38*
%TO.C,C62*%
X184775000Y-123900000D03*
X183225000Y-123900000D03*
%TD*%
M02*
