M48
; DRILL file {KiCad 9.0.2} date 2025-09-08T10:55:39+0300
; FORMAT={-:-/ absolute / metric / decimal}
; #@! TF.CreationDate,2025-09-08T10:55:39+03:00
; #@! TF.GenerationSoftware,Kicad,Pcbnew,9.0.2
; #@! TF.FileFunction,Plated,1,4,PTH
FMAT,2
METRIC
; #@! TA.AperFunction,Plated,PTH,ComponentDrill
T1C0.200
; #@! TA.AperFunction,Plated,PTH,ViaDrill
T2C0.250
; #@! TA.AperFunction,Plated,PTH,ViaDrill
T3C0.300
; #@! TA.AperFunction,Plated,PTH,ViaDrill
T4C0.500
; #@! TA.AperFunction,Plated,PTH,ComponentDrill
T5C0.650
; #@! TA.AperFunction,Plated,PTH,ComponentDrill
T6C0.730
; #@! TA.AperFunction,Plated,PTH,ComponentDrill
T7C0.800
; #@! TA.AperFunction,Plated,PTH,ComponentDrill
T8C1.000
; #@! TA.AperFunction,Plated,PTH,ComponentDrill
T9C1.100
; #@! TA.AperFunction,Plated,PTH,ComponentDrill
T10C1.200
; #@! TA.AperFunction,Plated,PTH,ComponentDrill
T11C1.550
; #@! TA.AperFunction,Plated,PTH,ComponentDrill
T12C1.650
%
G90
G05
T1
X119.69Y-84.36
X119.69Y-85.46
X120.24Y-83.81
X120.24Y-84.91
X120.24Y-86.01
X120.79Y-84.36
X120.79Y-85.46
X121.34Y-83.81
X121.34Y-84.91
X121.34Y-86.01
X121.89Y-84.36
X121.89Y-85.46
X125.115Y-132.82
X125.115Y-134.82
X127.115Y-132.82
X127.115Y-134.82
T2
X99.11Y-97.51
X99.52Y-91.822
X100.59Y-120.18
X102.09Y-80.31
X102.89Y-104.56
X103.63Y-105.43
X104.275Y-100.715
X106.287Y-131.505
X108.35Y-86.94
X108.69Y-128.49
X108.71Y-94.45
X108.94Y-92.68
X109.48Y-78.77
X110.79Y-113.22
X111.67Y-111.95
X112.17Y-110.41
X112.59Y-112.57
X112.88Y-84.72
X112.91Y-83.21
X112.93Y-86.22
X112.98Y-109.05
X113.01Y-111.35
X113.076Y-109.815
X113.44Y-95.78
X114.7Y-106.7
X114.72Y-118.75
X114.72Y-122.75
X114.93Y-137.44
X116.63Y-110.73
X117.85Y-114.04
X120.14Y-126.42
X121.01Y-126.7
X122.91Y-133.01
X123.14Y-134.06
X123.46Y-105.58
X123.847Y-126.877
X126.106Y-136.819
X126.35Y-137.77
X126.6Y-108.38
X126.72Y-117.94
X126.85Y-116.57
X126.88Y-109.47
X127.51Y-114.31
X127.674Y-140.796
X128.19Y-116.32
X128.3Y-111.2
X128.31Y-123.91
X128.64Y-105.96
X129.018Y-123.528
X129.07Y-131.9
X129.45Y-104.67
X129.49Y-103.03
X129.56Y-112.56
X129.67Y-123.07
X129.78Y-133.15
X129.88Y-107.43
X129.88Y-118.72
X130.09Y-106.61
X130.12Y-105.4
X130.41Y-104.6
X131.14Y-115.03
X131.54Y-114.06
X131.79Y-109.43
X131.81Y-113.1
X132.11Y-133.58
X132.61Y-122.95
X132.91Y-83.05
X133.02Y-129.29
X133.13Y-92.65
X133.47Y-90.69
X133.87Y-95.07
X134.038Y-98.504
X134.77Y-77.44
X135.0Y-101.19
X135.1Y-100.003
X135.14Y-87.86
X135.467Y-113.436
X135.76Y-104.11
X135.82Y-124.92
X135.9Y-107.45
X136.02Y-115.31
X136.078Y-95.848
X136.13Y-116.21
X137.34Y-121.14
X137.36Y-93.6
X137.98Y-122.07
X138.0Y-130.45
X138.01Y-102.66
X138.36Y-101.66
X138.618Y-100.056
X139.076Y-100.882
X139.22Y-95.12
X139.28Y-118.04
X139.3Y-72.5
X139.64Y-106.59
X139.75Y-96.67
X140.2Y-104.87
X140.21Y-118.59
X140.26Y-122.65
X140.27Y-90.99
X140.455Y-94.215
X140.81Y-125.48
X140.813Y-108.914
X141.2Y-108.09
X141.25Y-93.6
X141.57Y-124.79
X141.69Y-121.44
X142.46Y-121.2
X143.06Y-125.47
X144.02Y-115.34
X144.07Y-116.66
X144.53Y-117.63
X144.74Y-123.47
X144.77Y-77.26
X145.01Y-110.09
X145.04Y-115.33
X145.97Y-114.86
X146.31Y-96.41
X146.7Y-122.88
X147.34Y-118.5
X147.445Y-112.43
X147.49Y-93.27
X147.57Y-73.74
X147.78Y-117.37
X147.98Y-76.07
X148.21Y-140.26
X148.8Y-117.88
X148.92Y-121.49
X149.01Y-116.84
X150.03Y-136.6
X150.1Y-116.42
X150.22Y-77.26
X150.61Y-122.62
X150.78Y-75.39
X151.33Y-115.63
X151.42Y-89.2
X151.88Y-114.17
X152.13Y-141.95
X152.7Y-101.66
X152.72Y-100.61
X152.95Y-141.36
X152.99Y-115.11
X154.5Y-142.09
X154.865Y-121.455
X155.42Y-138.303
X155.47Y-119.02
X155.506Y-96.754
X155.71Y-98.18
X155.939Y-104.44
X156.37Y-114.64
X156.38Y-125.476
X156.65Y-108.11
X156.69Y-102.61
X156.91Y-94.46
X157.24Y-124.91
X157.26Y-114.09
X157.3Y-108.76
X157.36Y-143.88
X157.8Y-124.26
X157.81Y-113.44
X158.21Y-95.22
X158.44Y-105.0
X158.45Y-110.97
X158.94Y-117.67
X159.4Y-121.54
X159.67Y-98.5
X159.92Y-144.08
X159.95Y-110.14
X160.15Y-106.66
X160.22Y-90.33
X160.39Y-114.09
X160.67Y-109.38
X160.902Y-106.101
X161.02Y-110.96
X161.11Y-124.07
X161.57Y-105.44
X161.69Y-117.22
X162.47Y-95.34
X162.52Y-114.62
X162.999Y-118.997
X163.089Y-122.904
X163.49Y-99.97
X163.57Y-125.99
X163.76Y-106.34
X163.79Y-112.98
X165.71Y-83.64
X171.75Y-86.38
X172.94Y-109.38
X172.952Y-100.61
X173.02Y-94.49
X173.62Y-124.45
X174.58Y-136.1
X175.09Y-81.17
X176.15Y-85.85
X177.095Y-118.964
X177.6Y-94.86
X177.79Y-108.31
X177.993Y-125.076
X178.955Y-96.135
X179.3Y-111.0
X179.975Y-94.055
X180.19Y-93.04
X180.41Y-87.06
X180.54Y-104.81
X181.179Y-104.143
X181.31Y-88.04
X181.99Y-119.44
X182.639Y-108.242
X182.84Y-119.43
X184.91Y-75.59
X185.05Y-92.41
X190.22Y-82.35
X192.52Y-85.84
X193.46Y-83.63
X193.69Y-125.06
X195.3Y-138.56
X196.308Y-78.782
T3
X99.83Y-121.84
X99.91Y-99.56
X99.94Y-101.68
X100.23Y-107.47
X101.18Y-83.31
X101.18Y-87.85
X101.19Y-85.45
X101.82Y-103.66
X102.4Y-126.91
X102.4Y-129.94
X102.6Y-132.83
X102.74Y-98.16
X103.49Y-117.86
X103.8Y-80.38
X104.41Y-111.53
X104.41Y-111.53
X104.41Y-111.53
X104.41Y-111.53
X104.41Y-111.53
X104.43Y-113.33
X104.5Y-109.7
X104.99Y-84.04
X105.05Y-85.18
X105.36Y-96.13
X105.72Y-91.99
X106.53Y-133.73
X107.02Y-124.72
X107.24Y-121.87
X107.44Y-81.81
X107.56Y-133.7
X108.69Y-124.72
X108.72Y-138.81
X108.82Y-140.44
X109.06Y-80.08
X110.18Y-135.55
X110.29Y-101.46
X110.54Y-126.14
X111.17Y-107.14
X111.18Y-135.72
X111.37Y-137.8
X111.42Y-117.79
X112.17Y-127.37
X112.44Y-121.84
X112.5Y-89.32
X112.51Y-90.32
X112.76Y-132.37
X114.26Y-136.68
X114.35Y-97.61
X118.42Y-138.56
X118.45Y-141.57
X118.54Y-122.25
X118.8Y-117.99
X118.95Y-137.52
X119.55Y-96.84
X119.91Y-137.52
X119.91Y-139.93
X121.26Y-141.96
X121.73Y-138.53
X122.53Y-143.87
X123.94Y-122.17
X125.74Y-142.44
X125.86Y-128.29
X127.47Y-96.82
X127.87Y-139.87
X128.25Y-131.49
X129.57Y-98.57
X129.58Y-120.27
X130.42Y-83.56
X130.95Y-99.77
X131.02Y-103.18
X131.37Y-79.54
X132.85Y-86.7
X133.04Y-128.23
X133.23Y-125.73
X133.81Y-134.99
X133.93Y-136.65
X134.06Y-138.03
X134.11Y-120.86
X134.18Y-84.17
X134.81Y-110.91
X136.4Y-101.69
X137.02Y-124.85
X138.92Y-82.47
X138.98Y-76.55
X139.28Y-74.69
X139.55Y-79.56
X140.11Y-130.43
X140.42Y-76.52
X140.44Y-105.82
X140.85Y-130.43
X141.31Y-145.18
X141.5Y-81.47
X141.6Y-130.43
X141.64Y-84.52
X141.95Y-128.36
X142.04Y-76.51
X142.06Y-101.98
X143.04Y-129.64
X143.39Y-86.59
X143.49Y-88.31
X143.6Y-139.79
X143.98Y-130.31
X144.25Y-89.8
X144.35Y-145.25
X144.66Y-139.78
X144.74Y-126.51
X144.82Y-124.82
X145.45Y-132.27
X145.62Y-122.83
X145.92Y-101.97
X146.47Y-132.27
X146.83Y-93.75
X146.9Y-124.09
X147.02Y-131.67
X147.04Y-138.96
X147.35Y-125.76
X147.5Y-132.27
X149.22Y-138.9
X150.14Y-72.7
X151.53Y-74.67
X152.07Y-130.6
X152.07Y-136.75
X152.08Y-129.8
X152.22Y-117.15
X152.75Y-105.94
X152.79Y-110.95
X153.54Y-138.22
X154.77Y-134.5
X155.04Y-127.33
X155.27Y-125.13
X155.69Y-90.17
X156.22Y-88.89
X156.96Y-128.99
X156.98Y-90.17
X156.99Y-131.97
X157.61Y-112.24
X157.82Y-138.75
X158.88Y-136.23
X159.41Y-112.22
X160.01Y-138.55
X163.1Y-123.78
X163.26Y-97.48
X163.56Y-117.21
X163.76Y-114.58
X166.94Y-105.61
X166.97Y-127.54
X168.26Y-96.88
X168.45Y-116.86
X168.52Y-114.62
X169.66Y-125.95
X169.82Y-88.12
X169.82Y-90.06
X169.82Y-91.83
X170.38Y-133.98
X170.74Y-124.38
X171.72Y-118.99
X171.96Y-101.88
X172.29Y-131.94
X173.05Y-90.69
X173.09Y-89.18
X173.53Y-117.28
X173.6Y-115.96
X173.62Y-113.4
X173.64Y-114.67
X173.72Y-118.98
X174.84Y-82.47
X175.19Y-105.66
X176.83Y-75.44
X177.49Y-100.29
X177.88Y-113.79
X178.57Y-124.14
X178.67Y-117.3
X179.47Y-75.49
X180.02Y-114.84
X180.53Y-89.69
X180.68Y-96.04
X182.07Y-104.89
X182.39Y-138.42
X182.57Y-106.08
X182.94Y-102.93
X183.49Y-104.91
X183.86Y-100.73
X184.15Y-108.05
X184.45Y-96.01
X184.54Y-81.17
X184.58Y-102.35
X184.82Y-112.29
X184.93Y-74.26
X184.97Y-106.52
X185.34Y-109.21
X186.06Y-99.62
X186.08Y-103.85
X186.1Y-113.57
X186.2Y-111.51
X186.43Y-101.15
X186.43Y-102.34
X186.45Y-124.25
X186.88Y-84.64
X187.16Y-107.55
X187.22Y-74.32
X187.22Y-106.66
X187.27Y-105.68
X187.29Y-104.81
X187.34Y-108.41
X187.88Y-109.22
X187.92Y-84.64
X188.14Y-113.55
X188.31Y-111.32
X188.39Y-116.13
X188.44Y-105.69
X188.45Y-104.79
X188.45Y-106.62
X188.51Y-107.52
X188.52Y-109.74
X188.82Y-77.96
X188.97Y-114.93
X188.99Y-82.34
X189.07Y-108.28
X189.14Y-138.2
X189.46Y-109.93
X189.52Y-100.59
X189.6Y-97.38
X189.69Y-102.14
X189.84Y-108.68
X190.53Y-117.59
X190.81Y-114.3
X190.83Y-104.1
X191.05Y-98.64
X191.11Y-115.79
X191.88Y-103.18
X192.29Y-97.41
X193.11Y-117.67
X193.4Y-102.23
X193.52Y-98.72
X193.54Y-115.9
X193.55Y-106.55
X193.56Y-114.35
X193.62Y-111.86
X193.89Y-104.01
X194.39Y-132.26
X194.39Y-133.56
X194.68Y-81.68
X194.7Y-82.75
X194.83Y-102.92
X195.89Y-117.79
X195.97Y-115.97
X196.04Y-114.26
X196.07Y-103.86
X196.25Y-109.13
T4
X105.74Y-120.17
X107.56Y-100.43
X114.72Y-126.21
X122.71Y-127.58
X168.77Y-77.14
X190.35Y-136.24
X190.38Y-120.15
T5
X151.86Y-91.41
X151.86Y-92.68
X153.13Y-91.41
X153.13Y-92.68
X154.4Y-91.41
X154.4Y-92.68
X155.67Y-91.41
X155.67Y-92.68
X156.94Y-91.41
X156.94Y-92.68
X158.21Y-91.41
X158.21Y-92.68
X159.48Y-91.41
X159.48Y-92.68
T6
X102.85Y-82.767
X102.85Y-84.267
X102.85Y-85.767
X102.85Y-87.267
X102.85Y-88.767
T7
X116.49Y-140.007
X118.49Y-140.007
T8
X136.88Y-73.36
X136.88Y-75.9
X136.88Y-78.44
X136.88Y-80.98
X136.88Y-83.52
X136.88Y-86.06
X136.88Y-88.6
X136.88Y-91.14
X151.76Y-73.25
X153.42Y-81.45
X154.3Y-73.25
X156.84Y-73.25
X159.38Y-73.25
X159.92Y-81.45
X161.92Y-73.25
X164.46Y-73.25
X167.0Y-73.25
X169.54Y-73.25
X173.47Y-73.26
X176.01Y-73.26
X178.55Y-73.26
X181.09Y-73.26
X183.63Y-73.26
X186.17Y-73.26
X188.71Y-73.26
X196.1Y-120.32
X196.1Y-122.86
X196.1Y-125.4
X196.1Y-127.94
X196.1Y-130.48
X196.1Y-133.02
X196.1Y-135.56
X196.15Y-82.24
X196.15Y-84.78
X196.15Y-87.32
X196.15Y-89.86
X196.15Y-92.4
X196.15Y-94.94
X196.15Y-97.48
X196.15Y-100.02
T9
X156.75Y-127.35
X156.75Y-133.85
X161.25Y-127.35
X161.25Y-133.85
X164.44Y-141.917
X169.44Y-141.917
X172.2Y-127.35
X172.2Y-133.85
X176.7Y-127.35
X176.7Y-133.85
X179.9Y-141.95
X184.9Y-141.95
X187.75Y-127.35
X187.75Y-133.85
X192.25Y-127.35
X192.25Y-133.85
T10
X141.62Y-79.74
X141.62Y-86.24
X146.12Y-79.74
X146.12Y-86.24
T11
X193.52Y-109.22
T12
X190.98Y-106.68
X190.98Y-111.76
X196.06Y-106.68
X196.06Y-111.76
M30
