%TF.GenerationSoftware,KiCad,Pcbnew,9.0.2*%
%TF.CreationDate,2025-09-24T13:57:42+03:00*%
%TF.ProjectId,OpenAirScope,4f70656e-4169-4725-9363-6f70652e6b69,v0-Draft*%
%TF.SameCoordinates,Original*%
%TF.FileFunction,Paste,Bot*%
%TF.FilePolarity,Positive*%
%FSLAX46Y46*%
G04 Gerber Fmt 4.6, Leading zero omitted, Abs format (unit mm)*
G04 Created by KiCad (PCBNEW 9.0.2) date 2025-09-24 13:57:42*
%MOMM*%
%LPD*%
G01*
G04 APERTURE LIST*
G04 Aperture macros list*
%AMRoundRect*
0 Rectangle with rounded corners*
0 $1 Rounding radius*
0 $2 $3 $4 $5 $6 $7 $8 $9 X,Y pos of 4 corners*
0 Add a 4 corners polygon primitive as box body*
4,1,4,$2,$3,$4,$5,$6,$7,$8,$9,$2,$3,0*
0 Add four circle primitives for the rounded corners*
1,1,$1+$1,$2,$3*
1,1,$1+$1,$4,$5*
1,1,$1+$1,$6,$7*
1,1,$1+$1,$8,$9*
0 Add four rect primitives between the rounded corners*
20,1,$1+$1,$2,$3,$4,$5,0*
20,1,$1+$1,$4,$5,$6,$7,0*
20,1,$1+$1,$6,$7,$8,$9,0*
20,1,$1+$1,$8,$9,$2,$3,0*%
G04 Aperture macros list end*
%ADD10RoundRect,0.225000X-0.225000X-0.250000X0.225000X-0.250000X0.225000X0.250000X-0.225000X0.250000X0*%
%ADD11RoundRect,0.250000X0.325000X0.650000X-0.325000X0.650000X-0.325000X-0.650000X0.325000X-0.650000X0*%
%ADD12RoundRect,0.200000X0.200000X0.275000X-0.200000X0.275000X-0.200000X-0.275000X0.200000X-0.275000X0*%
%ADD13RoundRect,0.200000X0.275000X-0.200000X0.275000X0.200000X-0.275000X0.200000X-0.275000X-0.200000X0*%
%ADD14R,0.600000X1.300000*%
%ADD15RoundRect,0.250000X0.475000X-0.250000X0.475000X0.250000X-0.475000X0.250000X-0.475000X-0.250000X0*%
%ADD16RoundRect,0.150000X-0.825000X-0.150000X0.825000X-0.150000X0.825000X0.150000X-0.825000X0.150000X0*%
%ADD17RoundRect,0.250000X-0.650000X0.325000X-0.650000X-0.325000X0.650000X-0.325000X0.650000X0.325000X0*%
%ADD18RoundRect,0.225000X0.225000X0.250000X-0.225000X0.250000X-0.225000X-0.250000X0.225000X-0.250000X0*%
%ADD19RoundRect,0.250000X-0.325000X-0.650000X0.325000X-0.650000X0.325000X0.650000X-0.325000X0.650000X0*%
%ADD20RoundRect,0.150000X-0.150000X0.825000X-0.150000X-0.825000X0.150000X-0.825000X0.150000X0.825000X0*%
%ADD21RoundRect,0.225000X0.250000X-0.225000X0.250000X0.225000X-0.250000X0.225000X-0.250000X-0.225000X0*%
%ADD22RoundRect,0.150000X-0.150000X0.587500X-0.150000X-0.587500X0.150000X-0.587500X0.150000X0.587500X0*%
%ADD23R,1.200000X2.000000*%
%ADD24RoundRect,0.250000X-0.350000X0.850000X-0.350000X-0.850000X0.350000X-0.850000X0.350000X0.850000X0*%
%ADD25RoundRect,0.250000X-1.125000X1.275000X-1.125000X-1.275000X1.125000X-1.275000X1.125000X1.275000X0*%
%ADD26RoundRect,0.200000X-0.275000X0.200000X-0.275000X-0.200000X0.275000X-0.200000X0.275000X0.200000X0*%
%ADD27R,2.000000X1.450000*%
%ADD28R,1.500000X0.800000*%
G04 APERTURE END LIST*
D10*
%TO.C,C75*%
X3140000Y21510000D03*
X1590000Y21510000D03*
%TD*%
D11*
%TO.C,C57*%
X78915000Y30392382D03*
X81865000Y30392382D03*
%TD*%
D12*
%TO.C,R40*%
X65115000Y17360000D03*
X66765000Y17360000D03*
%TD*%
D13*
%TO.C,R46*%
X4552070Y42829359D03*
X4552070Y41179359D03*
%TD*%
D14*
%TO.C,D6*%
X81400000Y3610000D03*
X82350000Y5710000D03*
X80450000Y5710000D03*
%TD*%
D12*
%TO.C,R37*%
X59315000Y24410000D03*
X60965000Y24410000D03*
%TD*%
D10*
%TO.C,C76*%
X3110000Y23050000D03*
X1560000Y23050000D03*
%TD*%
D12*
%TO.C,R36*%
X59315000Y22910000D03*
X60965000Y22910000D03*
%TD*%
%TO.C,R32*%
X80545000Y7270000D03*
X82195000Y7270000D03*
%TD*%
D15*
%TO.C,C60*%
X72590000Y22410000D03*
X72590000Y20510000D03*
%TD*%
D16*
%TO.C,U10*%
X68665000Y20455000D03*
X68665000Y21725000D03*
X68665000Y22995000D03*
X68665000Y24265000D03*
X63715000Y24265000D03*
X63715000Y22995000D03*
X63715000Y21725000D03*
X63715000Y20455000D03*
%TD*%
D17*
%TO.C,C19*%
X46520000Y6185000D03*
X46520000Y9135000D03*
%TD*%
D18*
%TO.C,C58*%
X80365000Y28492382D03*
X81915000Y28492382D03*
%TD*%
D19*
%TO.C,C18*%
X42515000Y11290000D03*
X39565000Y11290000D03*
%TD*%
D12*
%TO.C,R33*%
X63390000Y18860000D03*
X65040000Y18860000D03*
%TD*%
%TO.C,R41*%
X66815000Y18860000D03*
X68465000Y18860000D03*
%TD*%
D13*
%TO.C,R39*%
X85480000Y13970000D03*
X85480000Y12320000D03*
%TD*%
D20*
%TO.C,U9*%
X79585000Y21485000D03*
X80855000Y21485000D03*
X82125000Y21485000D03*
X83395000Y21485000D03*
X83395000Y26435000D03*
X82125000Y26435000D03*
X80855000Y26435000D03*
X79585000Y26435000D03*
%TD*%
D21*
%TO.C,C61*%
X70740000Y22085000D03*
X70740000Y20535000D03*
%TD*%
D22*
%TO.C,D7*%
X65990000Y13622500D03*
X66940000Y15497500D03*
X65040000Y15497500D03*
%TD*%
D13*
%TO.C,R45*%
X1866209Y42803382D03*
X1866209Y41153382D03*
%TD*%
D23*
%TO.C,L3*%
X80020000Y9316750D03*
X82560000Y9316750D03*
X82560000Y16816750D03*
X80020000Y16816750D03*
%TD*%
D24*
%TO.C,U4*%
X44065000Y8685000D03*
X41785000Y8685000D03*
X39505000Y8685000D03*
D25*
X40260000Y710000D03*
X43310000Y710000D03*
X40260000Y4060000D03*
X43310000Y4060000D03*
%TD*%
D26*
%TO.C,R38*%
X77690000Y21635000D03*
X77690000Y23285000D03*
%TD*%
D13*
%TO.C,R31*%
X77130000Y13970000D03*
X77130000Y12320000D03*
%TD*%
D18*
%TO.C,C59*%
X79115000Y19460000D03*
X80665000Y19460000D03*
%TD*%
D12*
%TO.C,R35*%
X59365000Y20360000D03*
X61015000Y20360000D03*
%TD*%
D27*
%TO.C,J11*%
X-945000Y25420000D03*
X7355000Y25420000D03*
X-945000Y39170000D03*
X7355000Y39170000D03*
D28*
X1655000Y27795000D03*
X1655000Y28895000D03*
X1655000Y29995000D03*
X1655000Y31095000D03*
X1655000Y32195000D03*
X1655000Y33295000D03*
X1655000Y34395000D03*
X1655000Y35495000D03*
%TD*%
D13*
%TO.C,R34*%
X76090000Y23285000D03*
X76090000Y21635000D03*
%TD*%
D18*
%TO.C,C62*%
X82215000Y19460000D03*
X83765000Y19460000D03*
%TD*%
M02*
