%TF.GenerationSoftware,KiCad,Pcbnew,9.0.2*%
%TF.CreationDate,2025-09-24T13:57:42+03:00*%
%TF.ProjectId,OpenAirScope,4f70656e-4169-4725-9363-6f70652e6b69,v0-Draft*%
%TF.SameCoordinates,Original*%
%TF.FileFunction,Soldermask,Bot*%
%TF.FilePolarity,Negative*%
%FSLAX46Y46*%
G04 Gerber Fmt 4.6, Leading zero omitted, Abs format (unit mm)*
G04 Created by KiCad (PCBNEW 9.0.2) date 2025-09-24 13:57:42*
%MOMM*%
%LPD*%
G01*
G04 APERTURE LIST*
%TA.AperFunction,Profile*%
%ADD10C,0.050000*%
%TD*%
%ADD11C,0.150000*%
%ADD12C,0.100000*%
G04 APERTURE END LIST*
D10*
X-3010000Y71860000D02*
X-3010000Y-3140000D01*
X96990000Y71860000D02*
X96990000Y-3140000D01*
X-3010000Y71860000D02*
X96990000Y71860000D01*
X-3010000Y-3140000D02*
X96990000Y-3140000D01*
D11*
X16058095Y68480896D02*
X16534285Y68480896D01*
X15962857Y68195181D02*
X16296190Y69195181D01*
X16296190Y69195181D02*
X16629523Y68195181D01*
X16962857Y68861848D02*
X16962857Y68195181D01*
X16962857Y68766610D02*
X17010476Y68814229D01*
X17010476Y68814229D02*
X17105714Y68861848D01*
X17105714Y68861848D02*
X17248571Y68861848D01*
X17248571Y68861848D02*
X17343809Y68814229D01*
X17343809Y68814229D02*
X17391428Y68718991D01*
X17391428Y68718991D02*
X17391428Y68195181D01*
X17724762Y68861848D02*
X18105714Y68861848D01*
X17867619Y69195181D02*
X17867619Y68338039D01*
X17867619Y68338039D02*
X17915238Y68242800D01*
X17915238Y68242800D02*
X18010476Y68195181D01*
X18010476Y68195181D02*
X18105714Y68195181D01*
X18820000Y68242800D02*
X18724762Y68195181D01*
X18724762Y68195181D02*
X18534286Y68195181D01*
X18534286Y68195181D02*
X18439048Y68242800D01*
X18439048Y68242800D02*
X18391429Y68338039D01*
X18391429Y68338039D02*
X18391429Y68718991D01*
X18391429Y68718991D02*
X18439048Y68814229D01*
X18439048Y68814229D02*
X18534286Y68861848D01*
X18534286Y68861848D02*
X18724762Y68861848D01*
X18724762Y68861848D02*
X18820000Y68814229D01*
X18820000Y68814229D02*
X18867619Y68718991D01*
X18867619Y68718991D02*
X18867619Y68623753D01*
X18867619Y68623753D02*
X18391429Y68528515D01*
X19296191Y68861848D02*
X19296191Y68195181D01*
X19296191Y68766610D02*
X19343810Y68814229D01*
X19343810Y68814229D02*
X19439048Y68861848D01*
X19439048Y68861848D02*
X19581905Y68861848D01*
X19581905Y68861848D02*
X19677143Y68814229D01*
X19677143Y68814229D02*
X19724762Y68718991D01*
X19724762Y68718991D02*
X19724762Y68195181D01*
X20200953Y68861848D02*
X20200953Y68195181D01*
X20200953Y68766610D02*
X20248572Y68814229D01*
X20248572Y68814229D02*
X20343810Y68861848D01*
X20343810Y68861848D02*
X20486667Y68861848D01*
X20486667Y68861848D02*
X20581905Y68814229D01*
X20581905Y68814229D02*
X20629524Y68718991D01*
X20629524Y68718991D02*
X20629524Y68195181D01*
X21534286Y68195181D02*
X21534286Y68718991D01*
X21534286Y68718991D02*
X21486667Y68814229D01*
X21486667Y68814229D02*
X21391429Y68861848D01*
X21391429Y68861848D02*
X21200953Y68861848D01*
X21200953Y68861848D02*
X21105715Y68814229D01*
X21534286Y68242800D02*
X21439048Y68195181D01*
X21439048Y68195181D02*
X21200953Y68195181D01*
X21200953Y68195181D02*
X21105715Y68242800D01*
X21105715Y68242800D02*
X21058096Y68338039D01*
X21058096Y68338039D02*
X21058096Y68433277D01*
X21058096Y68433277D02*
X21105715Y68528515D01*
X21105715Y68528515D02*
X21200953Y68576134D01*
X21200953Y68576134D02*
X21439048Y68576134D01*
X21439048Y68576134D02*
X21534286Y68623753D01*
X12748571Y74195181D02*
X12748571Y75195181D01*
X13319999Y74195181D02*
X12891428Y74766610D01*
X13319999Y75195181D02*
X12748571Y74623753D01*
X13748571Y74718991D02*
X14081904Y74718991D01*
X14224761Y74195181D02*
X13748571Y74195181D01*
X13748571Y74195181D02*
X13748571Y75195181D01*
X13748571Y75195181D02*
X14224761Y75195181D01*
X14653333Y74718991D02*
X14986666Y74718991D01*
X15129523Y74195181D02*
X14653333Y74195181D01*
X14653333Y74195181D02*
X14653333Y75195181D01*
X14653333Y75195181D02*
X15129523Y75195181D01*
X15558095Y74195181D02*
X15558095Y75195181D01*
X15558095Y75195181D02*
X15939047Y75195181D01*
X15939047Y75195181D02*
X16034285Y75147562D01*
X16034285Y75147562D02*
X16081904Y75099943D01*
X16081904Y75099943D02*
X16129523Y75004705D01*
X16129523Y75004705D02*
X16129523Y74861848D01*
X16129523Y74861848D02*
X16081904Y74766610D01*
X16081904Y74766610D02*
X16034285Y74718991D01*
X16034285Y74718991D02*
X15939047Y74671372D01*
X15939047Y74671372D02*
X15558095Y74671372D01*
X16558095Y74576134D02*
X17320000Y74576134D01*
X17986666Y75195181D02*
X18177142Y75195181D01*
X18177142Y75195181D02*
X18272380Y75147562D01*
X18272380Y75147562D02*
X18367618Y75052324D01*
X18367618Y75052324D02*
X18415237Y74861848D01*
X18415237Y74861848D02*
X18415237Y74528515D01*
X18415237Y74528515D02*
X18367618Y74338039D01*
X18367618Y74338039D02*
X18272380Y74242800D01*
X18272380Y74242800D02*
X18177142Y74195181D01*
X18177142Y74195181D02*
X17986666Y74195181D01*
X17986666Y74195181D02*
X17891428Y74242800D01*
X17891428Y74242800D02*
X17796190Y74338039D01*
X17796190Y74338039D02*
X17748571Y74528515D01*
X17748571Y74528515D02*
X17748571Y74861848D01*
X17748571Y74861848D02*
X17796190Y75052324D01*
X17796190Y75052324D02*
X17891428Y75147562D01*
X17891428Y75147562D02*
X17986666Y75195181D01*
X18843809Y75195181D02*
X18843809Y74385658D01*
X18843809Y74385658D02*
X18891428Y74290420D01*
X18891428Y74290420D02*
X18939047Y74242800D01*
X18939047Y74242800D02*
X19034285Y74195181D01*
X19034285Y74195181D02*
X19224761Y74195181D01*
X19224761Y74195181D02*
X19319999Y74242800D01*
X19319999Y74242800D02*
X19367618Y74290420D01*
X19367618Y74290420D02*
X19415237Y74385658D01*
X19415237Y74385658D02*
X19415237Y75195181D01*
X19748571Y75195181D02*
X20319999Y75195181D01*
X20034285Y74195181D02*
X20034285Y75195181D01*
X21320000Y75195181D02*
X21986666Y75195181D01*
X21986666Y75195181D02*
X21320000Y74195181D01*
X21320000Y74195181D02*
X21986666Y74195181D01*
X22558095Y75195181D02*
X22748571Y75195181D01*
X22748571Y75195181D02*
X22843809Y75147562D01*
X22843809Y75147562D02*
X22939047Y75052324D01*
X22939047Y75052324D02*
X22986666Y74861848D01*
X22986666Y74861848D02*
X22986666Y74528515D01*
X22986666Y74528515D02*
X22939047Y74338039D01*
X22939047Y74338039D02*
X22843809Y74242800D01*
X22843809Y74242800D02*
X22748571Y74195181D01*
X22748571Y74195181D02*
X22558095Y74195181D01*
X22558095Y74195181D02*
X22462857Y74242800D01*
X22462857Y74242800D02*
X22367619Y74338039D01*
X22367619Y74338039D02*
X22320000Y74528515D01*
X22320000Y74528515D02*
X22320000Y74861848D01*
X22320000Y74861848D02*
X22367619Y75052324D01*
X22367619Y75052324D02*
X22462857Y75147562D01*
X22462857Y75147562D02*
X22558095Y75195181D01*
X23415238Y74195181D02*
X23415238Y75195181D01*
X23415238Y75195181D02*
X23986666Y74195181D01*
X23986666Y74195181D02*
X23986666Y75195181D01*
X24462857Y74718991D02*
X24796190Y74718991D01*
X24939047Y74195181D02*
X24462857Y74195181D01*
X24462857Y74195181D02*
X24462857Y75195181D01*
X24462857Y75195181D02*
X24939047Y75195181D01*
D12*
X29881904Y70123891D02*
X29643809Y70123891D01*
X29643809Y70123891D02*
X29620000Y69885796D01*
X29620000Y69885796D02*
X29643809Y69909605D01*
X29643809Y69909605D02*
X29691428Y69933415D01*
X29691428Y69933415D02*
X29810476Y69933415D01*
X29810476Y69933415D02*
X29858095Y69909605D01*
X29858095Y69909605D02*
X29881904Y69885796D01*
X29881904Y69885796D02*
X29905714Y69838177D01*
X29905714Y69838177D02*
X29905714Y69719129D01*
X29905714Y69719129D02*
X29881904Y69671510D01*
X29881904Y69671510D02*
X29858095Y69647700D01*
X29858095Y69647700D02*
X29810476Y69623891D01*
X29810476Y69623891D02*
X29691428Y69623891D01*
X29691428Y69623891D02*
X29643809Y69647700D01*
X29643809Y69647700D02*
X29620000Y69671510D01*
X30500951Y69623891D02*
X30500951Y69957224D01*
X30500951Y69909605D02*
X30524761Y69933415D01*
X30524761Y69933415D02*
X30572380Y69957224D01*
X30572380Y69957224D02*
X30643808Y69957224D01*
X30643808Y69957224D02*
X30691427Y69933415D01*
X30691427Y69933415D02*
X30715237Y69885796D01*
X30715237Y69885796D02*
X30715237Y69623891D01*
X30715237Y69885796D02*
X30739046Y69933415D01*
X30739046Y69933415D02*
X30786665Y69957224D01*
X30786665Y69957224D02*
X30858094Y69957224D01*
X30858094Y69957224D02*
X30905713Y69933415D01*
X30905713Y69933415D02*
X30929523Y69885796D01*
X30929523Y69885796D02*
X30929523Y69623891D01*
X31167618Y69623891D02*
X31167618Y69957224D01*
X31167618Y69909605D02*
X31191428Y69933415D01*
X31191428Y69933415D02*
X31239047Y69957224D01*
X31239047Y69957224D02*
X31310475Y69957224D01*
X31310475Y69957224D02*
X31358094Y69933415D01*
X31358094Y69933415D02*
X31381904Y69885796D01*
X31381904Y69885796D02*
X31381904Y69623891D01*
X31381904Y69885796D02*
X31405713Y69933415D01*
X31405713Y69933415D02*
X31453332Y69957224D01*
X31453332Y69957224D02*
X31524761Y69957224D01*
X31524761Y69957224D02*
X31572380Y69933415D01*
X31572380Y69933415D02*
X31596190Y69885796D01*
X31596190Y69885796D02*
X31596190Y69623891D01*
X26346109Y73811905D02*
X26346109Y73573810D01*
X26346109Y73573810D02*
X26584204Y73550001D01*
X26584204Y73550001D02*
X26560395Y73573810D01*
X26560395Y73573810D02*
X26536585Y73621429D01*
X26536585Y73621429D02*
X26536585Y73740477D01*
X26536585Y73740477D02*
X26560395Y73788096D01*
X26560395Y73788096D02*
X26584204Y73811905D01*
X26584204Y73811905D02*
X26631823Y73835715D01*
X26631823Y73835715D02*
X26750871Y73835715D01*
X26750871Y73835715D02*
X26798490Y73811905D01*
X26798490Y73811905D02*
X26822300Y73788096D01*
X26822300Y73788096D02*
X26846109Y73740477D01*
X26846109Y73740477D02*
X26846109Y73621429D01*
X26846109Y73621429D02*
X26822300Y73573810D01*
X26822300Y73573810D02*
X26798490Y73550001D01*
X26846109Y74430952D02*
X26512776Y74430952D01*
X26560395Y74430952D02*
X26536585Y74454762D01*
X26536585Y74454762D02*
X26512776Y74502381D01*
X26512776Y74502381D02*
X26512776Y74573809D01*
X26512776Y74573809D02*
X26536585Y74621428D01*
X26536585Y74621428D02*
X26584204Y74645238D01*
X26584204Y74645238D02*
X26846109Y74645238D01*
X26584204Y74645238D02*
X26536585Y74669047D01*
X26536585Y74669047D02*
X26512776Y74716666D01*
X26512776Y74716666D02*
X26512776Y74788095D01*
X26512776Y74788095D02*
X26536585Y74835714D01*
X26536585Y74835714D02*
X26584204Y74859524D01*
X26584204Y74859524D02*
X26846109Y74859524D01*
X26846109Y75097619D02*
X26512776Y75097619D01*
X26560395Y75097619D02*
X26536585Y75121429D01*
X26536585Y75121429D02*
X26512776Y75169048D01*
X26512776Y75169048D02*
X26512776Y75240476D01*
X26512776Y75240476D02*
X26536585Y75288095D01*
X26536585Y75288095D02*
X26584204Y75311905D01*
X26584204Y75311905D02*
X26846109Y75311905D01*
X26584204Y75311905D02*
X26536585Y75335714D01*
X26536585Y75335714D02*
X26512776Y75383333D01*
X26512776Y75383333D02*
X26512776Y75454762D01*
X26512776Y75454762D02*
X26536585Y75502381D01*
X26536585Y75502381D02*
X26584204Y75526191D01*
X26584204Y75526191D02*
X26846109Y75526191D01*
D11*
%TO.C,H2*%
X96680000Y68710000D02*
G75*
G02*
X90980000Y68710000I-2850000J0D01*
G01*
X90980000Y68710000D02*
G75*
G02*
X96680000Y68710000I2850000J0D01*
G01*
D12*
%TO.C,U7*%
X32620000Y69350000D02*
X32420000Y69150000D01*
X32620000Y69350000D02*
X32420000Y69550000D01*
X28020000Y69350000D02*
X32620000Y69350000D01*
X28020000Y69350000D02*
X28220000Y69150000D01*
X28020000Y69350000D02*
X28220000Y69550000D01*
X27120000Y71950000D02*
X27320000Y72150000D01*
X27120000Y71950000D02*
X27120000Y76550000D01*
X27120000Y71950000D02*
X26920000Y72150000D01*
X27120000Y76550000D02*
X27320000Y76350000D01*
X27120000Y76550000D02*
X26920000Y76350000D01*
X9620000Y69350000D02*
X9420000Y69150000D01*
X9620000Y69350000D02*
X9420000Y69550000D01*
X5020000Y69350000D02*
X9620000Y69350000D01*
X5020000Y69350000D02*
X5220000Y69150000D01*
X5020000Y69350000D02*
X5220000Y69550000D01*
D11*
%TO.C,H1*%
X96680000Y30000D02*
G75*
G02*
X90980000Y30000I-2850000J0D01*
G01*
X90980000Y30000D02*
G75*
G02*
X96680000Y30000I2850000J0D01*
G01*
%TO.C,H3*%
X3000000Y68710000D02*
G75*
G02*
X-2700000Y68710000I-2850000J0D01*
G01*
X-2700000Y68710000D02*
G75*
G02*
X3000000Y68710000I2850000J0D01*
G01*
%TO.C,H4*%
X2850000Y0D02*
G75*
G02*
X-2850000Y0I-2850000J0D01*
G01*
X-2850000Y0D02*
G75*
G02*
X2850000Y0I2850000J0D01*
G01*
%TD*%
M02*
