%TF.GenerationSoftware,KiCad,Pcbnew,9.0.2*%
%TF.CreationDate,2025-09-24T13:57:42+03:00*%
%TF.ProjectId,OpenAirScope,4f70656e-4169-4725-9363-6f70652e6b69,v0-Draft*%
%TF.SameCoordinates,Original*%
%TF.FileFunction,Soldermask,Bot*%
%TF.FilePolarity,Negative*%
%FSLAX46Y46*%
G04 Gerber Fmt 4.6, Leading zero omitted, Abs format (unit mm)*
G04 Created by KiCad (PCBNEW 9.0.2) date 2025-09-24 13:57:42*
%MOMM*%
%LPD*%
G01*
G04 APERTURE LIST*
G04 Aperture macros list*
%AMRoundRect*
0 Rectangle with rounded corners*
0 $1 Rounding radius*
0 $2 $3 $4 $5 $6 $7 $8 $9 X,Y pos of 4 corners*
0 Add a 4 corners polygon primitive as box body*
4,1,4,$2,$3,$4,$5,$6,$7,$8,$9,$2,$3,0*
0 Add four circle primitives for the rounded corners*
1,1,$1+$1,$2,$3*
1,1,$1+$1,$4,$5*
1,1,$1+$1,$6,$7*
1,1,$1+$1,$8,$9*
0 Add four rect primitives between the rounded corners*
20,1,$1+$1,$2,$3,$4,$5,0*
20,1,$1+$1,$4,$5,$6,$7,0*
20,1,$1+$1,$6,$7,$8,$9,0*
20,1,$1+$1,$8,$9,$2,$3,0*%
G04 Aperture macros list end*
%ADD10C,2.000000*%
%ADD11C,3.200000*%
%ADD12C,1.700000*%
%ADD13R,1.700000X1.700000*%
%ADD14C,2.679000*%
%ADD15C,2.529000*%
%ADD16C,2.100000*%
%ADD17RoundRect,0.250001X-0.799999X-0.799999X0.799999X-0.799999X0.799999X0.799999X-0.799999X0.799999X0*%
%ADD18C,1.600000*%
%ADD19R,1.600000X1.600000*%
%ADD20C,1.512000*%
%ADD21RoundRect,0.102000X-0.654000X-0.654000X0.654000X-0.654000X0.654000X0.654000X-0.654000X0.654000X0*%
%ADD22C,0.650000*%
%ADD23C,0.500000*%
%ADD24C,1.000000*%
%ADD25R,1.000000X1.000000*%
%ADD26C,1.442000*%
%ADD27RoundRect,0.102000X-0.619000X0.619000X-0.619000X-0.619000X0.619000X-0.619000X0.619000X0.619000X0*%
%ADD28C,2.200000*%
%ADD29R,2.200000X2.200000*%
%ADD30RoundRect,0.225000X-0.225000X-0.250000X0.225000X-0.250000X0.225000X0.250000X-0.225000X0.250000X0*%
%ADD31RoundRect,0.250000X0.325000X0.650000X-0.325000X0.650000X-0.325000X-0.650000X0.325000X-0.650000X0*%
%ADD32RoundRect,0.200000X0.200000X0.275000X-0.200000X0.275000X-0.200000X-0.275000X0.200000X-0.275000X0*%
%ADD33RoundRect,0.200000X0.275000X-0.200000X0.275000X0.200000X-0.275000X0.200000X-0.275000X-0.200000X0*%
%ADD34RoundRect,0.070000X-0.300000X0.650000X-0.300000X-0.650000X0.300000X-0.650000X0.300000X0.650000X0*%
%ADD35RoundRect,0.250000X0.475000X-0.250000X0.475000X0.250000X-0.475000X0.250000X-0.475000X-0.250000X0*%
%ADD36RoundRect,0.150000X-0.825000X-0.150000X0.825000X-0.150000X0.825000X0.150000X-0.825000X0.150000X0*%
%ADD37RoundRect,0.250000X-0.650000X0.325000X-0.650000X-0.325000X0.650000X-0.325000X0.650000X0.325000X0*%
%ADD38RoundRect,0.225000X0.225000X0.250000X-0.225000X0.250000X-0.225000X-0.250000X0.225000X-0.250000X0*%
%ADD39RoundRect,0.250000X-0.325000X-0.650000X0.325000X-0.650000X0.325000X0.650000X-0.325000X0.650000X0*%
%ADD40RoundRect,0.150000X-0.150000X0.825000X-0.150000X-0.825000X0.150000X-0.825000X0.150000X0.825000X0*%
%ADD41RoundRect,0.225000X0.250000X-0.225000X0.250000X0.225000X-0.250000X0.225000X-0.250000X-0.225000X0*%
%ADD42RoundRect,0.150000X-0.150000X0.587500X-0.150000X-0.587500X0.150000X-0.587500X0.150000X0.587500X0*%
%ADD43RoundRect,0.102000X-0.600000X1.000000X-0.600000X-1.000000X0.600000X-1.000000X0.600000X1.000000X0*%
%ADD44RoundRect,0.250000X-0.350000X0.850000X-0.350000X-0.850000X0.350000X-0.850000X0.350000X0.850000X0*%
%ADD45RoundRect,0.249997X-2.650003X2.950003X-2.650003X-2.950003X2.650003X-2.950003X2.650003X2.950003X0*%
%ADD46RoundRect,0.200000X-0.275000X0.200000X-0.275000X-0.200000X0.275000X-0.200000X0.275000X0.200000X0*%
%ADD47R,2.000000X1.450000*%
%ADD48R,1.500000X0.800000*%
G04 APERTURE END LIST*
D10*
%TO.C,SW3*%
X60240000Y16010000D03*
X60240000Y9510000D03*
X55740000Y16010000D03*
X55740000Y9510000D03*
%TD*%
D11*
%TO.C,H2*%
X93830000Y68710000D03*
%TD*%
D12*
%TO.C,J13*%
X95090000Y23040000D03*
X95090000Y20500000D03*
X95090000Y17960000D03*
X95090000Y15420000D03*
X95090000Y12880000D03*
X95090000Y10340000D03*
D13*
X95090000Y7800000D03*
%TD*%
D14*
%TO.C,J6*%
X95050000Y36680000D03*
X95050000Y31600000D03*
X89970000Y36680000D03*
X89970000Y31600000D03*
D15*
X92510000Y34140000D03*
%TD*%
D12*
%TO.C,J14*%
X50750000Y70110000D03*
X53290000Y70110000D03*
X55830000Y70110000D03*
X58370000Y70110000D03*
X60910000Y70110000D03*
X63450000Y70110000D03*
X65990000Y70110000D03*
D13*
X68530000Y70110000D03*
%TD*%
D16*
%TO.C,J8*%
X83890000Y1410000D03*
D17*
X78890000Y1410000D03*
%TD*%
D10*
%TO.C,SW5*%
X91240000Y16010000D03*
X91240000Y9510000D03*
X86740000Y16010000D03*
X86740000Y9510000D03*
%TD*%
D11*
%TO.C,H1*%
X93830000Y30000D03*
%TD*%
D18*
%TO.C,BZ1*%
X52410000Y61910000D03*
D19*
X58910000Y61910000D03*
%TD*%
D20*
%TO.C,J2*%
X17480000Y3352500D03*
D21*
X15480000Y3352500D03*
%TD*%
D12*
%TO.C,J5*%
X35870000Y52220000D03*
X35870000Y54760000D03*
X35870000Y57300000D03*
X35870000Y59840000D03*
X35870000Y62380000D03*
X35870000Y64920000D03*
X35870000Y67460000D03*
D13*
X35870000Y70000000D03*
%TD*%
D11*
%TO.C,H3*%
X150000Y68710000D03*
%TD*%
D22*
%TO.C,J1*%
X3040000Y10395000D03*
X3040000Y16175000D03*
%TD*%
D11*
%TO.C,H4*%
X0Y0D03*
%TD*%
D23*
%TO.C,MK2*%
X54400000Y-1760000D03*
%TD*%
D12*
%TO.C,J4*%
X95140000Y61120000D03*
X95140000Y58580000D03*
X95140000Y56040000D03*
X95140000Y53500000D03*
X95140000Y50960000D03*
X95140000Y48420000D03*
X95140000Y45880000D03*
D13*
X95140000Y43340000D03*
%TD*%
D23*
%TO.C,MK1*%
X50000000Y-1772000D03*
%TD*%
D10*
%TO.C,SW4*%
X75690000Y16010000D03*
X75690000Y9510000D03*
X71190000Y16010000D03*
X71190000Y9510000D03*
%TD*%
D24*
%TO.C,J3*%
X50850000Y50680000D03*
X50850000Y51950000D03*
X52120000Y50680000D03*
X52120000Y51950000D03*
X53390000Y50680000D03*
X53390000Y51950000D03*
X54660000Y50680000D03*
X54660000Y51950000D03*
X55930000Y50680000D03*
X55930000Y51950000D03*
X57200000Y50680000D03*
X57200000Y51950000D03*
X58470000Y50680000D03*
D25*
X58470000Y51950000D03*
%TD*%
D26*
%TO.C,J10*%
X1840000Y54592500D03*
X1840000Y56092500D03*
X1840000Y57592500D03*
X1840000Y59092500D03*
D27*
X1840000Y60592500D03*
%TD*%
D28*
%TO.C,S1*%
X40610000Y57120000D03*
X40610000Y63620000D03*
X45110000Y57120000D03*
D29*
X45110000Y63620000D03*
%TD*%
D12*
%TO.C,J7*%
X72460000Y70100000D03*
X75000000Y70100000D03*
X77540000Y70100000D03*
X80080000Y70100000D03*
X82620000Y70100000D03*
X85160000Y70100000D03*
D13*
X87700000Y70100000D03*
%TD*%
D16*
%TO.C,J9*%
X68430000Y1442500D03*
D17*
X63430000Y1442500D03*
%TD*%
D30*
%TO.C,C75*%
X3140000Y21510000D03*
X1590000Y21510000D03*
%TD*%
D31*
%TO.C,C57*%
X78915000Y30392382D03*
X81865000Y30392382D03*
%TD*%
D32*
%TO.C,R40*%
X65115000Y17360000D03*
X66765000Y17360000D03*
%TD*%
D33*
%TO.C,R46*%
X4552070Y42829359D03*
X4552070Y41179359D03*
%TD*%
D34*
%TO.C,D6*%
X81400000Y3610000D03*
X82350000Y5710000D03*
X80450000Y5710000D03*
%TD*%
D32*
%TO.C,R37*%
X59315000Y24410000D03*
X60965000Y24410000D03*
%TD*%
D24*
%TO.C,TP16*%
X34760000Y16890000D03*
%TD*%
D30*
%TO.C,C76*%
X3110000Y23050000D03*
X1560000Y23050000D03*
%TD*%
D32*
%TO.C,R36*%
X59315000Y22910000D03*
X60965000Y22910000D03*
%TD*%
%TO.C,R32*%
X80545000Y7270000D03*
X82195000Y7270000D03*
%TD*%
D35*
%TO.C,C60*%
X72590000Y22410000D03*
X72590000Y20510000D03*
%TD*%
D36*
%TO.C,U10*%
X68665000Y20455000D03*
X68665000Y21725000D03*
X68665000Y22995000D03*
X68665000Y24265000D03*
X63715000Y24265000D03*
X63715000Y22995000D03*
X63715000Y21725000D03*
X63715000Y20455000D03*
%TD*%
D37*
%TO.C,C19*%
X46520000Y6185000D03*
X46520000Y9135000D03*
%TD*%
D38*
%TO.C,C58*%
X80365000Y28492382D03*
X81915000Y28492382D03*
%TD*%
D39*
%TO.C,C18*%
X42515000Y11290000D03*
X39565000Y11290000D03*
%TD*%
D32*
%TO.C,R33*%
X63390000Y18860000D03*
X65040000Y18860000D03*
%TD*%
%TO.C,R41*%
X66815000Y18860000D03*
X68465000Y18860000D03*
%TD*%
D33*
%TO.C,R39*%
X85480000Y13970000D03*
X85480000Y12320000D03*
%TD*%
D40*
%TO.C,U9*%
X79585000Y21485000D03*
X80855000Y21485000D03*
X82125000Y21485000D03*
X83395000Y21485000D03*
X83395000Y26435000D03*
X82125000Y26435000D03*
X80855000Y26435000D03*
X79585000Y26435000D03*
%TD*%
D41*
%TO.C,C61*%
X70740000Y22085000D03*
X70740000Y20535000D03*
%TD*%
D42*
%TO.C,D7*%
X65990000Y13622500D03*
X66940000Y15497500D03*
X65040000Y15497500D03*
%TD*%
D33*
%TO.C,R45*%
X1866209Y42803382D03*
X1866209Y41153382D03*
%TD*%
D43*
%TO.C,L3*%
X80020000Y9316750D03*
X82560000Y9316750D03*
X82560000Y16816750D03*
X80020000Y16816750D03*
%TD*%
D44*
%TO.C,U4*%
X44065000Y8685000D03*
D45*
X41785000Y2385000D03*
D44*
X41785000Y8685000D03*
X39505000Y8685000D03*
%TD*%
D46*
%TO.C,R38*%
X77690000Y21635000D03*
X77690000Y23285000D03*
%TD*%
D33*
%TO.C,R31*%
X77130000Y13970000D03*
X77130000Y12320000D03*
%TD*%
D38*
%TO.C,C59*%
X79115000Y19460000D03*
X80665000Y19460000D03*
%TD*%
D32*
%TO.C,R35*%
X59365000Y20360000D03*
X61015000Y20360000D03*
%TD*%
D47*
%TO.C,J11*%
X-945000Y25420000D03*
X7355000Y25420000D03*
X-945000Y39170000D03*
X7355000Y39170000D03*
D48*
X1655000Y27795000D03*
X1655000Y28895000D03*
X1655000Y29995000D03*
X1655000Y31095000D03*
X1655000Y32195000D03*
X1655000Y33295000D03*
X1655000Y34395000D03*
X1655000Y35495000D03*
%TD*%
D33*
%TO.C,R34*%
X76090000Y23285000D03*
X76090000Y21635000D03*
%TD*%
D38*
%TO.C,C62*%
X82215000Y19460000D03*
X83765000Y19460000D03*
%TD*%
M02*
