M48
; DRILL file {KiCad 9.0.2} date 2025-09-24T13:57:42+0300
; FORMAT={-:-/ absolute / metric / decimal}
; #@! TF.CreationDate,2025-09-24T13:57:42+03:00
; #@! TF.GenerationSoftware,Kicad,Pcbnew,9.0.2
; #@! TF.FileFunction,MixedPlating,1,4
FMAT,2
METRIC
; #@! TA.AperFunction,Plated,PTH,ComponentDrill
T1C0.200
; #@! TA.AperFunction,Plated,PTH,ViaDrill
T2C0.250
; #@! TA.AperFunction,Plated,PTH,ViaDrill
T3C0.300
; #@! TA.AperFunction,Plated,PTH,ViaDrill
T4C0.500
; #@! TA.AperFunction,Plated,PTH,ComponentDrill
T5C0.650
; #@! TA.AperFunction,Plated,PTH,ComponentDrill
T6C0.730
; #@! TA.AperFunction,Plated,PTH,ComponentDrill
T7C0.800
; #@! TA.AperFunction,Plated,PTH,ComponentDrill
T8C1.000
; #@! TA.AperFunction,Plated,PTH,ComponentDrill
T9C1.100
; #@! TA.AperFunction,Plated,PTH,ComponentDrill
T10C1.200
; #@! TA.AperFunction,Plated,PTH,ComponentDrill
T11C1.550
; #@! TA.AperFunction,Plated,PTH,ComponentDrill
T12C1.650
; #@! TA.AperFunction,NonPlated,NPTH,ComponentDrill
T13C0.500
; #@! TA.AperFunction,NonPlated,NPTH,ComponentDrill
T14C0.650
; #@! TA.AperFunction,NonPlated,NPTH,ComponentDrill
T15C3.200
%
G90
G05
T1
X18.68Y59.0
X18.68Y57.9
X19.23Y59.55
X19.23Y58.45
X19.23Y57.35
X19.78Y59.0
X19.78Y57.9
X20.33Y59.55
X20.33Y58.45
X20.33Y57.35
X20.88Y59.0
X20.88Y57.9
X24.105Y10.54
X24.105Y8.54
X26.105Y10.54
X26.105Y8.54
T2
X-1.9Y45.85
X-1.49Y51.538
X-0.42Y23.18
X1.08Y63.05
X1.88Y38.8
X2.62Y37.93
X3.265Y42.645
X5.277Y11.855
X7.34Y56.42
X7.68Y14.87
X7.7Y48.91
X7.93Y50.68
X8.47Y64.59
X9.78Y30.14
X10.66Y31.41
X11.16Y32.95
X11.58Y30.79
X11.87Y58.64
X11.9Y60.15
X11.92Y57.14
X11.97Y34.31
X12.0Y32.01
X12.066Y33.545
X12.43Y47.58
X13.69Y36.66
X13.71Y24.61
X13.71Y20.61
X13.92Y5.92
X15.62Y32.63
X16.84Y29.32
X19.13Y16.94
X20.0Y16.66
X21.9Y10.35
X22.13Y9.3
X22.45Y37.78
X22.837Y16.483
X25.096Y6.541
X25.34Y5.59
X25.59Y34.98
X25.71Y25.42
X25.84Y26.79
X25.87Y33.89
X26.5Y29.05
X26.664Y2.564
X27.18Y27.04
X27.29Y32.16
X27.3Y19.45
X27.63Y37.4
X28.008Y19.832
X28.06Y11.46
X28.44Y38.69
X28.48Y40.33
X28.55Y30.8
X28.66Y20.29
X28.77Y10.21
X28.87Y35.93
X28.87Y24.64
X29.08Y36.75
X29.11Y37.96
X29.4Y38.76
X30.13Y28.33
X30.53Y29.3
X30.78Y33.93
X30.8Y30.26
X31.1Y9.78
X31.6Y20.41
X31.9Y60.31
X32.01Y14.07
X32.12Y50.71
X32.46Y52.67
X32.86Y48.29
X33.028Y44.856
X33.76Y65.92
X33.99Y42.17
X34.09Y43.357
X34.13Y55.5
X34.457Y29.924
X34.75Y39.25
X34.81Y18.44
X34.89Y35.91
X35.01Y28.05
X35.068Y47.512
X35.12Y27.15
X36.33Y22.22
X36.35Y49.76
X36.97Y21.29
X36.99Y12.91
X37.0Y40.7
X37.35Y41.7
X37.608Y43.304
X38.066Y42.478
X38.21Y48.24
X38.27Y25.32
X38.29Y70.86
X38.63Y36.77
X38.74Y46.69
X39.19Y38.49
X39.2Y24.77
X39.25Y20.71
X39.26Y52.37
X39.445Y49.145
X39.8Y17.88
X39.803Y34.446
X40.19Y35.27
X40.24Y49.76
X40.56Y18.57
X40.68Y21.92
X41.45Y22.16
X42.05Y17.89
X43.01Y28.02
X43.06Y26.7
X43.52Y25.73
X43.73Y19.89
X43.76Y66.1
X44.0Y33.27
X44.03Y28.03
X44.96Y28.5
X45.3Y46.95
X45.69Y20.48
X46.33Y24.86
X46.435Y30.93
X46.48Y50.09
X46.56Y69.62
X46.77Y25.99
X46.97Y67.29
X47.2Y3.1
X47.79Y25.48
X47.91Y21.87
X48.0Y26.52
X49.02Y6.76
X49.09Y26.94
X49.21Y66.1
X49.6Y20.74
X49.77Y67.97
X50.32Y27.73
X50.41Y54.16
X50.87Y29.19
X51.12Y1.41
X51.69Y41.7
X51.71Y42.75
X51.94Y2.0
X51.98Y28.25
X53.49Y1.27
X53.855Y21.905
X54.41Y5.057
X54.46Y24.34
X54.496Y46.606
X54.7Y45.18
X54.929Y38.92
X55.36Y28.72
X55.37Y17.884
X55.64Y35.25
X55.68Y40.75
X55.9Y48.9
X56.23Y18.45
X56.25Y29.27
X56.29Y34.6
X56.35Y-0.52
X56.79Y19.1
X56.8Y29.92
X57.2Y48.14
X57.43Y38.36
X57.44Y32.39
X57.93Y25.69
X58.39Y21.82
X58.66Y44.86
X58.91Y-0.72
X58.94Y33.22
X59.14Y36.7
X59.21Y53.03
X59.38Y29.27
X59.66Y33.98
X59.892Y37.259
X60.01Y32.4
X60.1Y19.29
X60.56Y37.92
X60.68Y26.14
X61.46Y48.02
X61.51Y28.74
X61.989Y24.363
X62.079Y20.456
X62.48Y43.39
X62.56Y17.37
X62.75Y37.02
X62.78Y30.38
X64.7Y59.72
X70.74Y56.98
X71.93Y33.98
X71.942Y42.75
X72.01Y48.87
X72.61Y18.91
X73.57Y7.26
X74.08Y62.19
X75.14Y57.51
X76.085Y24.396
X76.59Y48.5
X76.78Y35.05
X76.983Y18.284
X77.945Y47.225
X78.29Y32.36
X78.965Y49.305
X79.18Y50.32
X79.4Y56.3
X79.53Y38.55
X80.169Y39.217
X80.3Y55.32
X80.98Y23.92
X81.629Y35.118
X81.83Y23.93
X83.9Y67.77
X84.04Y50.95
X89.21Y61.01
X91.51Y57.52
X92.45Y59.73
X92.68Y18.3
X94.29Y4.8
X95.298Y64.578
T3
X-1.18Y21.52
X-1.1Y43.8
X-1.07Y41.68
X-0.78Y35.89
X0.17Y60.05
X0.17Y55.51
X0.18Y57.91
X0.81Y39.7
X1.39Y16.45
X1.39Y13.42
X1.59Y10.53
X1.73Y45.2
X2.48Y25.5
X2.79Y62.98
X3.4Y31.83
X3.4Y31.83
X3.4Y31.83
X3.4Y31.83
X3.4Y31.83
X3.42Y30.03
X3.49Y33.66
X3.98Y59.32
X4.04Y58.18
X4.35Y47.23
X4.71Y51.37
X5.52Y9.63
X6.01Y18.64
X6.23Y21.49
X6.43Y61.55
X6.55Y9.66
X7.68Y18.64
X7.71Y4.55
X7.81Y2.92
X8.05Y63.28
X9.17Y7.81
X9.28Y41.9
X9.53Y17.22
X10.16Y36.22
X10.17Y7.64
X10.36Y5.56
X10.41Y25.57
X11.16Y15.99
X11.43Y21.52
X11.49Y54.04
X11.5Y53.04
X11.75Y10.99
X13.25Y6.68
X13.34Y45.75
X17.41Y4.8
X17.44Y1.79
X17.53Y21.11
X17.79Y25.37
X17.94Y5.84
X18.54Y46.52
X18.9Y5.84
X18.9Y3.43
X20.25Y1.4
X20.72Y4.83
X21.52Y-0.51
X22.93Y21.19
X24.73Y0.92
X24.85Y15.07
X26.46Y46.54
X26.86Y3.49
X27.24Y11.87
X28.56Y44.79
X28.57Y23.09
X29.41Y59.8
X29.94Y43.59
X30.01Y40.18
X30.36Y63.82
X31.84Y56.66
X32.03Y15.13
X32.22Y17.63
X32.8Y8.37
X32.92Y6.71
X33.05Y5.33
X33.1Y22.5
X33.17Y59.19
X33.8Y32.45
X35.39Y41.67
X36.01Y18.51
X37.91Y60.89
X37.97Y66.81
X38.27Y68.67
X38.54Y63.8
X39.1Y12.93
X39.41Y66.84
X39.43Y37.54
X39.84Y12.93
X40.3Y-1.82
X40.49Y61.89
X40.59Y12.93
X40.63Y58.84
X40.94Y15.0
X41.03Y66.85
X41.05Y41.38
X42.03Y13.72
X42.38Y56.77
X42.48Y55.05
X42.59Y3.57
X42.97Y13.05
X43.24Y53.56
X43.34Y-1.89
X43.65Y3.58
X43.73Y16.85
X43.81Y18.54
X44.44Y11.09
X44.61Y20.53
X44.91Y41.39
X45.46Y11.09
X45.82Y49.61
X45.89Y19.27
X46.01Y11.69
X46.03Y4.4
X46.34Y17.6
X46.49Y11.09
X48.21Y4.46
X49.13Y70.66
X50.52Y68.69
X51.06Y12.76
X51.06Y6.61
X51.07Y13.56
X51.21Y26.21
X51.74Y37.42
X51.78Y32.41
X52.53Y5.14
X53.76Y8.86
X54.03Y16.03
X54.26Y18.23
X54.68Y53.19
X55.21Y54.47
X55.95Y14.37
X55.97Y53.19
X55.98Y11.39
X56.6Y31.12
X56.81Y4.61
X57.87Y7.13
X58.4Y31.14
X59.0Y4.81
X62.09Y19.58
X62.25Y45.88
X62.55Y26.15
X62.75Y28.78
X65.93Y37.75
X65.96Y15.82
X67.25Y46.48
X67.44Y26.5
X67.51Y28.74
X68.65Y17.41
X68.81Y55.24
X68.81Y53.3
X68.81Y51.53
X69.37Y9.38
X69.73Y18.98
X70.71Y24.37
X70.95Y41.48
X71.28Y11.42
X72.04Y52.67
X72.08Y54.18
X72.52Y26.08
X72.59Y27.4
X72.61Y29.96
X72.63Y28.69
X72.71Y24.38
X73.83Y60.89
X74.18Y37.7
X75.82Y67.92
X76.48Y43.07
X76.87Y29.57
X77.56Y19.22
X77.66Y26.06
X78.46Y67.87
X79.01Y28.52
X79.52Y53.67
X79.67Y47.32
X81.06Y38.47
X81.38Y4.94
X81.56Y37.28
X81.93Y40.43
X82.48Y38.45
X82.85Y42.63
X83.14Y35.31
X83.44Y47.35
X83.53Y62.19
X83.57Y41.01
X83.81Y31.07
X83.92Y69.1
X83.96Y36.84
X84.33Y34.15
X85.05Y43.74
X85.07Y39.51
X85.09Y29.79
X85.19Y31.85
X85.42Y42.21
X85.42Y41.02
X85.44Y19.11
X85.87Y58.72
X86.15Y35.81
X86.21Y69.04
X86.21Y36.7
X86.26Y37.68
X86.28Y38.55
X86.33Y34.95
X86.87Y34.14
X86.91Y58.72
X87.13Y29.81
X87.3Y32.04
X87.38Y27.23
X87.43Y37.67
X87.44Y38.57
X87.44Y36.74
X87.5Y35.84
X87.51Y33.62
X87.81Y65.4
X87.96Y28.43
X87.98Y61.02
X88.06Y35.08
X88.13Y5.16
X88.45Y33.43
X88.51Y42.77
X88.59Y45.98
X88.68Y41.22
X88.83Y34.68
X89.52Y25.77
X89.8Y29.06
X89.82Y39.26
X90.04Y44.72
X90.1Y27.57
X90.87Y40.18
X91.28Y45.95
X92.1Y25.69
X92.39Y41.13
X92.51Y44.64
X92.53Y27.46
X92.54Y36.81
X92.55Y29.01
X92.61Y31.5
X92.88Y39.35
X93.38Y11.1
X93.38Y9.8
X93.67Y61.68
X93.69Y60.61
X93.82Y40.44
X94.88Y25.57
X94.96Y27.39
X95.03Y29.1
X95.06Y39.5
X95.24Y34.23
T4
X4.73Y23.19
X6.55Y42.93
X13.71Y17.15
X21.7Y15.78
X67.76Y66.22
X89.34Y7.12
X89.37Y23.21
T5
X50.85Y51.95
X50.85Y50.68
X52.12Y51.95
X52.12Y50.68
X53.39Y51.95
X53.39Y50.68
X54.66Y51.95
X54.66Y50.68
X55.93Y51.95
X55.93Y50.68
X57.2Y51.95
X57.2Y50.68
X58.47Y51.95
X58.47Y50.68
T6
X1.84Y60.592
X1.84Y59.092
X1.84Y57.592
X1.84Y56.092
X1.84Y54.592
T7
X15.48Y3.353
X17.48Y3.353
T8
X35.87Y70.0
X35.87Y67.46
X35.87Y64.92
X35.87Y62.38
X35.87Y59.84
X35.87Y57.3
X35.87Y54.76
X35.87Y52.22
X50.75Y70.11
X52.41Y61.91
X53.29Y70.11
X55.83Y70.11
X58.37Y70.11
X58.91Y61.91
X60.91Y70.11
X63.45Y70.11
X65.99Y70.11
X68.53Y70.11
X72.46Y70.1
X75.0Y70.1
X77.54Y70.1
X80.08Y70.1
X82.62Y70.1
X85.16Y70.1
X87.7Y70.1
X95.09Y23.04
X95.09Y20.5
X95.09Y17.96
X95.09Y15.42
X95.09Y12.88
X95.09Y10.34
X95.09Y7.8
X95.14Y61.12
X95.14Y58.58
X95.14Y56.04
X95.14Y53.5
X95.14Y50.96
X95.14Y48.42
X95.14Y45.88
X95.14Y43.34
T9
X55.74Y16.01
X55.74Y9.51
X60.24Y16.01
X60.24Y9.51
X63.43Y1.442
X68.43Y1.442
X71.19Y16.01
X71.19Y9.51
X75.69Y16.01
X75.69Y9.51
X78.89Y1.41
X83.89Y1.41
X86.74Y16.01
X86.74Y9.51
X91.24Y16.01
X91.24Y9.51
T10
X40.61Y63.62
X40.61Y57.12
X45.11Y63.62
X45.11Y57.12
T11
X92.51Y34.14
T12
X89.97Y36.68
X89.97Y31.6
X95.05Y36.68
X95.05Y31.6
T13
X50.0Y-1.772
X54.4Y-1.76
T14
X3.04Y16.175
X3.04Y10.395
T15
X0.0Y0.0
X0.15Y68.71
X93.83Y68.71
X93.83Y0.03
M30
