%TF.GenerationSoftware,KiCad,Pcbnew,9.0.2*%
%TF.CreationDate,2025-09-24T13:57:42+03:00*%
%TF.ProjectId,OpenAirScope,4f70656e-4169-4725-9363-6f70652e6b69,v0-Draft*%
%TF.SameCoordinates,Original*%
%TF.FileFunction,Paste,Top*%
%TF.FilePolarity,Positive*%
%FSLAX46Y46*%
G04 Gerber Fmt 4.6, Leading zero omitted, Abs format (unit mm)*
G04 Created by KiCad (PCBNEW 9.0.2) date 2025-09-24 13:57:42*
%MOMM*%
%LPD*%
G01*
G04 APERTURE LIST*
G04 Aperture macros list*
%AMRoundRect*
0 Rectangle with rounded corners*
0 $1 Rounding radius*
0 $2 $3 $4 $5 $6 $7 $8 $9 X,Y pos of 4 corners*
0 Add a 4 corners polygon primitive as box body*
4,1,4,$2,$3,$4,$5,$6,$7,$8,$9,$2,$3,0*
0 Add four circle primitives for the rounded corners*
1,1,$1+$1,$2,$3*
1,1,$1+$1,$4,$5*
1,1,$1+$1,$6,$7*
1,1,$1+$1,$8,$9*
0 Add four rect primitives between the rounded corners*
20,1,$1+$1,$2,$3,$4,$5,0*
20,1,$1+$1,$4,$5,$6,$7,0*
20,1,$1+$1,$6,$7,$8,$9,0*
20,1,$1+$1,$8,$9,$2,$3,0*%
G04 Aperture macros list end*
%ADD10C,0.010000*%
%ADD11C,0.000000*%
%ADD12RoundRect,0.140000X0.140000X0.170000X-0.140000X0.170000X-0.140000X-0.170000X0.140000X-0.170000X0*%
%ADD13RoundRect,0.250000X-0.650000X0.325000X-0.650000X-0.325000X0.650000X-0.325000X0.650000X0.325000X0*%
%ADD14RoundRect,0.200000X-0.200000X-0.275000X0.200000X-0.275000X0.200000X0.275000X-0.200000X0.275000X0*%
%ADD15RoundRect,0.225000X0.225000X0.250000X-0.225000X0.250000X-0.225000X-0.250000X0.225000X-0.250000X0*%
%ADD16RoundRect,0.225000X-0.225000X-0.250000X0.225000X-0.250000X0.225000X0.250000X-0.225000X0.250000X0*%
%ADD17RoundRect,0.200000X0.200000X0.275000X-0.200000X0.275000X-0.200000X-0.275000X0.200000X-0.275000X0*%
%ADD18RoundRect,0.250000X-0.325000X-0.650000X0.325000X-0.650000X0.325000X0.650000X-0.325000X0.650000X0*%
%ADD19RoundRect,0.200000X0.275000X-0.200000X0.275000X0.200000X-0.275000X0.200000X-0.275000X-0.200000X0*%
%ADD20RoundRect,0.200000X-0.275000X0.200000X-0.275000X-0.200000X0.275000X-0.200000X0.275000X0.200000X0*%
%ADD21RoundRect,0.250000X-0.475000X0.250000X-0.475000X-0.250000X0.475000X-0.250000X0.475000X0.250000X0*%
%ADD22RoundRect,0.062500X-0.062500X0.117500X-0.062500X-0.117500X0.062500X-0.117500X0.062500X0.117500X0*%
%ADD23RoundRect,0.218750X-0.218750X-0.256250X0.218750X-0.256250X0.218750X0.256250X-0.218750X0.256250X0*%
%ADD24R,0.660000X0.310000*%
%ADD25R,1.500000X0.900000*%
%ADD26R,0.700000X0.700000*%
%ADD27RoundRect,0.075000X-0.275000X0.075000X-0.275000X-0.075000X0.275000X-0.075000X0.275000X0.075000X0*%
%ADD28RoundRect,0.075000X-0.275000X0.390000X-0.275000X-0.390000X0.275000X-0.390000X0.275000X0.390000X0*%
%ADD29RoundRect,0.075000X0.662500X-0.075000X0.662500X0.075000X-0.662500X0.075000X-0.662500X-0.075000X0*%
%ADD30RoundRect,0.075000X0.075000X-0.662500X0.075000X0.662500X-0.075000X0.662500X-0.075000X-0.662500X0*%
%ADD31RoundRect,0.150000X0.150000X-0.587500X0.150000X0.587500X-0.150000X0.587500X-0.150000X-0.587500X0*%
%ADD32RoundRect,0.075000X-0.250000X-0.075000X0.250000X-0.075000X0.250000X0.075000X-0.250000X0.075000X0*%
%ADD33RoundRect,0.225000X-0.250000X0.225000X-0.250000X-0.225000X0.250000X-0.225000X0.250000X0.225000X0*%
%ADD34RoundRect,0.250000X0.250000X0.475000X-0.250000X0.475000X-0.250000X-0.475000X0.250000X-0.475000X0*%
%ADD35R,1.800000X0.700000*%
%ADD36R,0.700000X1.800000*%
%ADD37RoundRect,0.050000X0.262500X0.050000X-0.262500X0.050000X-0.262500X-0.050000X0.262500X-0.050000X0*%
%ADD38RoundRect,0.080000X0.080000X0.295000X-0.080000X0.295000X-0.080000X-0.295000X0.080000X-0.295000X0*%
%ADD39RoundRect,0.150000X-0.875000X-0.150000X0.875000X-0.150000X0.875000X0.150000X-0.875000X0.150000X0*%
%ADD40R,0.400000X0.550000*%
%ADD41R,0.980000X3.400000*%
%ADD42RoundRect,0.250000X0.325000X0.650000X-0.325000X0.650000X-0.325000X-0.650000X0.325000X-0.650000X0*%
%ADD43RoundRect,0.150000X0.825000X0.150000X-0.825000X0.150000X-0.825000X-0.150000X0.825000X-0.150000X0*%
%ADD44RoundRect,0.075000X0.075000X0.275000X-0.075000X0.275000X-0.075000X-0.275000X0.075000X-0.275000X0*%
%ADD45RoundRect,0.075000X0.390000X0.275000X-0.390000X0.275000X-0.390000X-0.275000X0.390000X-0.275000X0*%
%ADD46RoundRect,0.225000X0.250000X-0.225000X0.250000X0.225000X-0.250000X0.225000X-0.250000X-0.225000X0*%
%ADD47RoundRect,0.218750X0.218750X0.256250X-0.218750X0.256250X-0.218750X-0.256250X0.218750X-0.256250X0*%
%ADD48RoundRect,0.150000X0.587500X0.150000X-0.587500X0.150000X-0.587500X-0.150000X0.587500X-0.150000X0*%
%ADD49RoundRect,0.250000X-0.250000X-0.475000X0.250000X-0.475000X0.250000X0.475000X-0.250000X0.475000X0*%
%ADD50RoundRect,0.062500X0.117500X0.062500X-0.117500X0.062500X-0.117500X-0.062500X0.117500X-0.062500X0*%
%ADD51RoundRect,0.250000X0.650000X-0.325000X0.650000X0.325000X-0.650000X0.325000X-0.650000X-0.325000X0*%
%ADD52RoundRect,0.250000X-0.750000X0.840000X-0.750000X-0.840000X0.750000X-0.840000X0.750000X0.840000X0*%
%ADD53RoundRect,0.150000X-0.425000X0.150000X-0.425000X-0.150000X0.425000X-0.150000X0.425000X0.150000X0*%
%ADD54RoundRect,0.075000X-0.500000X0.075000X-0.500000X-0.075000X0.500000X-0.075000X0.500000X0.075000X0*%
%ADD55RoundRect,0.150000X-0.150000X0.587500X-0.150000X-0.587500X0.150000X-0.587500X0.150000X0.587500X0*%
%ADD56RoundRect,0.218750X-0.256250X0.218750X-0.256250X-0.218750X0.256250X-0.218750X0.256250X0.218750X0*%
%ADD57RoundRect,0.130500X-0.169500X-0.130500X0.169500X-0.130500X0.169500X0.130500X-0.169500X0.130500X0*%
%ADD58RoundRect,0.062500X0.350000X-0.062500X0.350000X0.062500X-0.350000X0.062500X-0.350000X-0.062500X0*%
%ADD59RoundRect,0.062500X0.062500X-0.350000X0.062500X0.350000X-0.062500X0.350000X-0.062500X-0.350000X0*%
%ADD60RoundRect,0.249999X0.290001X-0.290001X0.290001X0.290001X-0.290001X0.290001X-0.290001X-0.290001X0*%
%ADD61RoundRect,0.112500X-0.237500X0.112500X-0.237500X-0.112500X0.237500X-0.112500X0.237500X0.112500X0*%
%ADD62RoundRect,0.250000X0.475000X-0.250000X0.475000X0.250000X-0.475000X0.250000X-0.475000X-0.250000X0*%
%ADD63R,1.100000X1.900000*%
%ADD64RoundRect,0.212500X0.212500X0.737500X-0.212500X0.737500X-0.212500X-0.737500X0.212500X-0.737500X0*%
%ADD65RoundRect,0.212500X0.737500X0.212500X-0.737500X0.212500X-0.737500X-0.212500X0.737500X-0.212500X0*%
%ADD66RoundRect,0.250001X0.714999X0.714999X-0.714999X0.714999X-0.714999X-0.714999X0.714999X-0.714999X0*%
G04 APERTURE END LIST*
D10*
%TO.C,U11*%
X-350000Y43275000D02*
X-1550000Y43275000D01*
X-1850000Y43575000D01*
X-1850000Y44325000D01*
X-350000Y44325000D01*
X-350000Y43275000D01*
G36*
X-350000Y43275000D02*
G01*
X-1550000Y43275000D01*
X-1850000Y43575000D01*
X-1850000Y44325000D01*
X-350000Y44325000D01*
X-350000Y43275000D01*
G37*
D11*
%TO.C,MK2*%
G36*
X55123300Y-1390000D02*
G01*
X55180000Y-1532600D01*
X55208900Y-1683300D01*
X55208900Y-1836700D01*
X55180000Y-1987400D01*
X55123300Y-2130000D01*
X55040900Y-2259400D01*
X54826100Y-2044700D01*
X54867800Y-1969300D01*
X54896300Y-1888000D01*
X54910700Y-1803100D01*
X54910700Y-1716900D01*
X54896300Y-1632000D01*
X54867800Y-1550700D01*
X54826100Y-1475300D01*
X55040900Y-1260600D01*
X55123300Y-1390000D01*
G37*
G36*
X54899400Y-2400900D02*
G01*
X54770000Y-2483300D01*
X54627400Y-2540000D01*
X54476700Y-2568900D01*
X54323300Y-2568900D01*
X54172600Y-2540000D01*
X54030000Y-2483300D01*
X53900600Y-2400900D01*
X54115300Y-2186100D01*
X54190700Y-2227800D01*
X54272000Y-2256300D01*
X54356900Y-2270700D01*
X54443100Y-2270700D01*
X54528000Y-2256300D01*
X54609300Y-2227800D01*
X54684700Y-2186100D01*
X54899400Y-2400900D01*
G37*
G36*
X54627400Y-980000D02*
G01*
X54770000Y-1036700D01*
X54899400Y-1119100D01*
X54684700Y-1333900D01*
X54609300Y-1292200D01*
X54528000Y-1263700D01*
X54443100Y-1249300D01*
X54356900Y-1249300D01*
X54272000Y-1263700D01*
X54190700Y-1292200D01*
X54115300Y-1333900D01*
X53900600Y-1119100D01*
X54030000Y-1036700D01*
X54172600Y-980000D01*
X54323300Y-951100D01*
X54476700Y-951100D01*
X54627400Y-980000D01*
G37*
G36*
X53973900Y-1475300D02*
G01*
X53932200Y-1550700D01*
X53903700Y-1632000D01*
X53889300Y-1716900D01*
X53889300Y-1803100D01*
X53903700Y-1888000D01*
X53932200Y-1969300D01*
X53973900Y-2044700D01*
X53759100Y-2259400D01*
X53676700Y-2130000D01*
X53620000Y-1987400D01*
X53591100Y-1836700D01*
X53591100Y-1683300D01*
X53620000Y-1532600D01*
X53676700Y-1390000D01*
X53759100Y-1260600D01*
X53973900Y-1475300D01*
G37*
%TO.C,MK1*%
G36*
X50723300Y-1402000D02*
G01*
X50780000Y-1544600D01*
X50808900Y-1695300D01*
X50808900Y-1848700D01*
X50780000Y-1999400D01*
X50723300Y-2142000D01*
X50640900Y-2271400D01*
X50426100Y-2056700D01*
X50467800Y-1981300D01*
X50496300Y-1900000D01*
X50510700Y-1815100D01*
X50510700Y-1728900D01*
X50496300Y-1644000D01*
X50467800Y-1562700D01*
X50426100Y-1487300D01*
X50640900Y-1272600D01*
X50723300Y-1402000D01*
G37*
G36*
X50499400Y-2412900D02*
G01*
X50370000Y-2495300D01*
X50227400Y-2552000D01*
X50076700Y-2580900D01*
X49923300Y-2580900D01*
X49772600Y-2552000D01*
X49630000Y-2495300D01*
X49500600Y-2412900D01*
X49715300Y-2198100D01*
X49790700Y-2239800D01*
X49872000Y-2268300D01*
X49956900Y-2282700D01*
X50043100Y-2282700D01*
X50128000Y-2268300D01*
X50209300Y-2239800D01*
X50284700Y-2198100D01*
X50499400Y-2412900D01*
G37*
G36*
X50227400Y-992000D02*
G01*
X50370000Y-1048700D01*
X50499400Y-1131100D01*
X50284700Y-1345900D01*
X50209300Y-1304200D01*
X50128000Y-1275700D01*
X50043100Y-1261300D01*
X49956900Y-1261300D01*
X49872000Y-1275700D01*
X49790700Y-1304200D01*
X49715300Y-1345900D01*
X49500600Y-1131100D01*
X49630000Y-1048700D01*
X49772600Y-992000D01*
X49923300Y-963100D01*
X50076700Y-963100D01*
X50227400Y-992000D01*
G37*
G36*
X49573900Y-1487300D02*
G01*
X49532200Y-1562700D01*
X49503700Y-1644000D01*
X49489300Y-1728900D01*
X49489300Y-1815100D01*
X49503700Y-1900000D01*
X49532200Y-1981300D01*
X49573900Y-2056700D01*
X49359100Y-2271400D01*
X49276700Y-2142000D01*
X49220000Y-1999400D01*
X49191100Y-1848700D01*
X49191100Y-1695300D01*
X49220000Y-1544600D01*
X49276700Y-1402000D01*
X49359100Y-1272600D01*
X49573900Y-1487300D01*
G37*
%TD*%
D12*
%TO.C,C53*%
X85940000Y43700000D03*
X86900000Y43700000D03*
%TD*%
D13*
%TO.C,C15*%
X44010000Y5205000D03*
X44010000Y8155000D03*
%TD*%
D14*
%TO.C,R60*%
X80075000Y35120000D03*
X78425000Y35120000D03*
%TD*%
D15*
%TO.C,C56*%
X6315000Y54060000D03*
X7865000Y54060000D03*
%TD*%
%TO.C,C40*%
X47570000Y18970000D03*
X49120000Y18970000D03*
%TD*%
D16*
%TO.C,C78*%
X67275000Y51525000D03*
X65725000Y51525000D03*
%TD*%
D17*
%TO.C,R82*%
X34790000Y11880000D03*
X36440000Y11880000D03*
%TD*%
D18*
%TO.C,C69*%
X2725000Y48570000D03*
X-225000Y48570000D03*
%TD*%
D19*
%TO.C,R20*%
X72230000Y60075000D03*
X72230000Y58425000D03*
%TD*%
D20*
%TO.C,R42*%
X1200000Y40995000D03*
X1200000Y42645000D03*
%TD*%
D21*
%TO.C,C4*%
X18470000Y7265000D03*
X18470000Y9165000D03*
%TD*%
D17*
%TO.C,R19*%
X52110000Y54290000D03*
X53760000Y54290000D03*
%TD*%
D22*
%TO.C,D17*%
X31970000Y13032500D03*
X31970000Y12192500D03*
%TD*%
D14*
%TO.C,R22*%
X28935000Y48680000D03*
X27285000Y48680000D03*
%TD*%
D22*
%TO.C,D16*%
X33010000Y21500000D03*
X33010000Y20660000D03*
%TD*%
D19*
%TO.C,R90*%
X29240000Y19170000D03*
X29240000Y17520000D03*
%TD*%
D20*
%TO.C,R74*%
X84990000Y62050000D03*
X84990000Y63700000D03*
%TD*%
D23*
%TO.C,D14*%
X90807500Y62350000D03*
X89232500Y62350000D03*
%TD*%
D24*
%TO.C,U3*%
X39470000Y8275000D03*
X39470000Y7775000D03*
X39470000Y7275000D03*
X38000000Y7275000D03*
X38000000Y7775000D03*
X38000000Y8275000D03*
%TD*%
D25*
%TO.C,U7*%
X27570000Y64650000D03*
X27570000Y63150000D03*
X27570000Y61650000D03*
X27570000Y60150000D03*
X27570000Y58650000D03*
X27570000Y57150000D03*
X27570000Y55650000D03*
X27570000Y54150000D03*
X27570000Y52650000D03*
X10070000Y52650000D03*
X10070000Y54150000D03*
X10070000Y55650000D03*
X10070000Y57150000D03*
X10070000Y58650000D03*
X10070000Y60150000D03*
X10070000Y61650000D03*
X10070000Y63150000D03*
X10070000Y64650000D03*
D26*
X20880000Y57350000D03*
X20880000Y58450000D03*
X20880000Y59550000D03*
X19780000Y57350000D03*
X19780000Y58450000D03*
X19780000Y59550000D03*
X18680000Y57350000D03*
X18680000Y58450000D03*
X18680000Y59550000D03*
%TD*%
D14*
%TO.C,R52*%
X64720000Y61930000D03*
X63070000Y61930000D03*
%TD*%
D27*
%TO.C,D1*%
X7840000Y8345000D03*
D28*
X7840000Y9230000D03*
%TD*%
D20*
%TO.C,TH1*%
X26470000Y4300000D03*
X26470000Y5950000D03*
%TD*%
D29*
%TO.C,U5*%
X32277500Y25430000D03*
X32277500Y25930000D03*
X32277500Y26430000D03*
X32277500Y26930000D03*
X32277500Y27430000D03*
X32277500Y27930000D03*
X32277500Y28430000D03*
X32277500Y28930000D03*
X32277500Y29430000D03*
X32277500Y29930000D03*
X32277500Y30430000D03*
X32277500Y30930000D03*
X32277500Y31430000D03*
X32277500Y31930000D03*
X32277500Y32430000D03*
X32277500Y32930000D03*
X32277500Y33430000D03*
X32277500Y33930000D03*
X32277500Y34430000D03*
X32277500Y34930000D03*
X32277500Y35430000D03*
X32277500Y35930000D03*
X32277500Y36430000D03*
X32277500Y36930000D03*
X32277500Y37430000D03*
X32277500Y37930000D03*
X32277500Y38430000D03*
X32277500Y38930000D03*
X32277500Y39430000D03*
X32277500Y39930000D03*
X32277500Y40430000D03*
X32277500Y40930000D03*
X32277500Y41430000D03*
X32277500Y41930000D03*
X32277500Y42430000D03*
X32277500Y42930000D03*
D30*
X34190000Y44842500D03*
X34690000Y44842500D03*
X35190000Y44842500D03*
X35690000Y44842500D03*
X36190000Y44842500D03*
X36690000Y44842500D03*
X37190000Y44842500D03*
X37690000Y44842500D03*
X38190000Y44842500D03*
X38690000Y44842500D03*
X39190000Y44842500D03*
X39690000Y44842500D03*
X40190000Y44842500D03*
X40690000Y44842500D03*
X41190000Y44842500D03*
X41690000Y44842500D03*
X42190000Y44842500D03*
X42690000Y44842500D03*
X43190000Y44842500D03*
X43690000Y44842500D03*
X44190000Y44842500D03*
X44690000Y44842500D03*
X45190000Y44842500D03*
X45690000Y44842500D03*
X46190000Y44842500D03*
X46690000Y44842500D03*
X47190000Y44842500D03*
X47690000Y44842500D03*
X48190000Y44842500D03*
X48690000Y44842500D03*
X49190000Y44842500D03*
X49690000Y44842500D03*
X50190000Y44842500D03*
X50690000Y44842500D03*
X51190000Y44842500D03*
X51690000Y44842500D03*
D29*
X53602500Y42930000D03*
X53602500Y42430000D03*
X53602500Y41930000D03*
X53602500Y41430000D03*
X53602500Y40930000D03*
X53602500Y40430000D03*
X53602500Y39930000D03*
X53602500Y39430000D03*
X53602500Y38930000D03*
X53602500Y38430000D03*
X53602500Y37930000D03*
X53602500Y37430000D03*
X53602500Y36930000D03*
X53602500Y36430000D03*
X53602500Y35930000D03*
X53602500Y35430000D03*
X53602500Y34930000D03*
X53602500Y34430000D03*
X53602500Y33930000D03*
X53602500Y33430000D03*
X53602500Y32930000D03*
X53602500Y32430000D03*
X53602500Y31930000D03*
X53602500Y31430000D03*
X53602500Y30930000D03*
X53602500Y30430000D03*
X53602500Y29930000D03*
X53602500Y29430000D03*
X53602500Y28930000D03*
X53602500Y28430000D03*
X53602500Y27930000D03*
X53602500Y27430000D03*
X53602500Y26930000D03*
X53602500Y26430000D03*
X53602500Y25930000D03*
X53602500Y25430000D03*
D30*
X51690000Y23517500D03*
X51190000Y23517500D03*
X50690000Y23517500D03*
X50190000Y23517500D03*
X49690000Y23517500D03*
X49190000Y23517500D03*
X48690000Y23517500D03*
X48190000Y23517500D03*
X47690000Y23517500D03*
X47190000Y23517500D03*
X46690000Y23517500D03*
X46190000Y23517500D03*
X45690000Y23517500D03*
X45190000Y23517500D03*
X44690000Y23517500D03*
X44190000Y23517500D03*
X43690000Y23517500D03*
X43190000Y23517500D03*
X42690000Y23517500D03*
X42190000Y23517500D03*
X41690000Y23517500D03*
X41190000Y23517500D03*
X40690000Y23517500D03*
X40190000Y23517500D03*
X39690000Y23517500D03*
X39190000Y23517500D03*
X38690000Y23517500D03*
X38190000Y23517500D03*
X37690000Y23517500D03*
X37190000Y23517500D03*
X36690000Y23517500D03*
X36190000Y23517500D03*
X35690000Y23517500D03*
X35190000Y23517500D03*
X34690000Y23517500D03*
X34190000Y23517500D03*
%TD*%
D17*
%TO.C,R29*%
X5165000Y57560000D03*
X6815000Y57560000D03*
%TD*%
D19*
%TO.C,R80*%
X87207249Y63681500D03*
X87207249Y62031500D03*
%TD*%
D31*
%TO.C,Q8*%
X82380000Y67185000D03*
X83330000Y65310000D03*
X81430000Y65310000D03*
%TD*%
D32*
%TO.C,U13*%
X43810000Y70890000D03*
X43810000Y70240000D03*
X43810000Y69590000D03*
X42010000Y69590000D03*
X42010000Y70240000D03*
X42010000Y70890000D03*
%TD*%
D15*
%TO.C,C27*%
X40705000Y46840000D03*
X42255000Y46840000D03*
%TD*%
D33*
%TO.C,C9*%
X9480000Y11040000D03*
X9480000Y12590000D03*
%TD*%
D17*
%TO.C,R30*%
X6265000Y52460000D03*
X7915000Y52460000D03*
%TD*%
D34*
%TO.C,C12*%
X33120000Y3870000D03*
X35020000Y3870000D03*
%TD*%
D17*
%TO.C,R88*%
X89780000Y19810000D03*
X91430000Y19810000D03*
%TD*%
D19*
%TO.C,R10*%
X34940000Y10345000D03*
X34940000Y8695000D03*
%TD*%
D20*
%TO.C,R75*%
X80230000Y61940000D03*
X80230000Y63590000D03*
%TD*%
D35*
%TO.C,U8*%
X74280000Y49305000D03*
X74280000Y50305000D03*
X74280000Y51305000D03*
X74280000Y52305000D03*
X74280000Y53305000D03*
X74280000Y54305000D03*
X74280000Y55305000D03*
X74280000Y56305000D03*
D36*
X75945000Y60150000D03*
X76945000Y60150000D03*
X77945000Y60150000D03*
X78945000Y60150000D03*
X79945000Y60150000D03*
X84945000Y60150000D03*
X85945000Y60150000D03*
X86945000Y60150000D03*
D35*
X89080000Y56305000D03*
X89080000Y55305000D03*
X89080000Y54305000D03*
X89080000Y53305000D03*
D36*
X86945000Y45350000D03*
X85945000Y45350000D03*
X84945000Y45350000D03*
X83945000Y45350000D03*
X82945000Y45350000D03*
X81945000Y45350000D03*
X80945000Y45350000D03*
X79945000Y45350000D03*
X78945000Y45350000D03*
X77945000Y45350000D03*
X76945000Y45350000D03*
X75945000Y45350000D03*
%TD*%
D16*
%TO.C,C46*%
X36635000Y16960000D03*
X35085000Y16960000D03*
%TD*%
%TO.C,C39*%
X49120000Y17430000D03*
X47570000Y17430000D03*
%TD*%
D31*
%TO.C,Q7*%
X85790000Y67305000D03*
X86740000Y65430000D03*
X84840000Y65430000D03*
%TD*%
D21*
%TO.C,C20*%
X50950000Y9660000D03*
X50950000Y11560000D03*
%TD*%
D20*
%TO.C,R54*%
X64230000Y49910000D03*
X64230000Y51560000D03*
%TD*%
D33*
%TO.C,C92*%
X30730000Y11430000D03*
X30730000Y12980000D03*
%TD*%
D19*
%TO.C,R70*%
X21667500Y50737500D03*
X21667500Y49087500D03*
%TD*%
%TO.C,R93*%
X29180000Y13030000D03*
X29180000Y11380000D03*
%TD*%
D15*
%TO.C,C55*%
X5215000Y59160000D03*
X6765000Y59160000D03*
%TD*%
D37*
%TO.C,U14*%
X13105000Y31180000D03*
X13105000Y31580000D03*
X13105000Y31980000D03*
X13105000Y32380000D03*
X13105000Y32780000D03*
X13105000Y33180000D03*
X13105000Y33580000D03*
X13105000Y33980000D03*
X14530000Y33980000D03*
X14530000Y33580000D03*
X14530000Y33180000D03*
X14530000Y32780000D03*
X14530000Y32380000D03*
X14530000Y31980000D03*
X14530000Y31580000D03*
X14530000Y31180000D03*
D38*
X13817500Y33510000D03*
X13817500Y32580000D03*
X13817500Y31650000D03*
%TD*%
D20*
%TO.C,R78*%
X24400000Y22282406D03*
X24400000Y23932406D03*
%TD*%
D16*
%TO.C,C26*%
X29970000Y31910000D03*
X28420000Y31910000D03*
%TD*%
D20*
%TO.C,R17*%
X43120000Y48875000D03*
X43120000Y50525000D03*
%TD*%
D34*
%TO.C,C6*%
X21630000Y970000D03*
X23530000Y970000D03*
%TD*%
D17*
%TO.C,R84*%
X33360000Y15400000D03*
X35010000Y15400000D03*
%TD*%
D14*
%TO.C,R77*%
X16688809Y47564201D03*
X15038809Y47564201D03*
%TD*%
D20*
%TO.C,R69*%
X92490000Y60740000D03*
X92490000Y62390000D03*
%TD*%
D23*
%TO.C,D13*%
X90807500Y64510000D03*
X89232500Y64510000D03*
%TD*%
D39*
%TO.C,U15*%
X74250000Y35070000D03*
X74250000Y33800000D03*
X74250000Y32530000D03*
X74250000Y31260000D03*
X74250000Y29990000D03*
X74250000Y28720000D03*
X74250000Y27450000D03*
X74250000Y26180000D03*
X64950000Y26180000D03*
X64950000Y27450000D03*
X64950000Y28720000D03*
X64950000Y29990000D03*
X64950000Y31260000D03*
X64950000Y32530000D03*
X64950000Y33800000D03*
X64950000Y35070000D03*
%TD*%
D19*
%TO.C,R81*%
X81760000Y63590000D03*
X81760000Y61940000D03*
%TD*%
D14*
%TO.C,R94*%
X10430000Y2900000D03*
X8780000Y2900000D03*
%TD*%
D40*
%TO.C,U11*%
X-1900000Y44950000D03*
X-1100000Y44950000D03*
X-300000Y44950000D03*
X-300000Y42650000D03*
X-1100000Y42650000D03*
X-1900000Y42650000D03*
%TD*%
D41*
%TO.C,L1*%
X39315000Y2610000D03*
X36945000Y2610000D03*
%TD*%
D17*
%TO.C,R66*%
X13700000Y23192406D03*
X15350000Y23192406D03*
%TD*%
%TO.C,R53*%
X58440000Y54320000D03*
X60090000Y54320000D03*
%TD*%
D16*
%TO.C,C86*%
X64120000Y16020000D03*
X62570000Y16020000D03*
%TD*%
D33*
%TO.C,C83*%
X33340000Y10330000D03*
X33340000Y11880000D03*
%TD*%
D42*
%TO.C,C71*%
X44160000Y1400000D03*
X47110000Y1400000D03*
%TD*%
D43*
%TO.C,U6*%
X19135000Y26790000D03*
X19135000Y28060000D03*
X19135000Y29330000D03*
X19135000Y30600000D03*
X24085000Y30600000D03*
X24085000Y29330000D03*
X24085000Y28060000D03*
X24085000Y26790000D03*
%TD*%
D16*
%TO.C,C33*%
X31555000Y44690000D03*
X30005000Y44690000D03*
%TD*%
D44*
%TO.C,D5*%
X44240000Y53470000D03*
D45*
X45125000Y53470000D03*
%TD*%
D17*
%TO.C,R23*%
X57965000Y39700000D03*
X59615000Y39700000D03*
%TD*%
%TO.C,R28*%
X10765000Y50560000D03*
X12415000Y50560000D03*
%TD*%
D46*
%TO.C,C30*%
X55943410Y26417925D03*
X55943410Y24867925D03*
%TD*%
D15*
%TO.C,C81*%
X90910000Y7100000D03*
X92460000Y7100000D03*
%TD*%
%TO.C,C84*%
X28980000Y21650000D03*
X30530000Y21650000D03*
%TD*%
D19*
%TO.C,R92*%
X12450000Y2760000D03*
X12450000Y1110000D03*
%TD*%
D33*
%TO.C,C34*%
X56116009Y37914666D03*
X56116009Y39464666D03*
%TD*%
D47*
%TO.C,FB1*%
X6036999Y10967000D03*
X7611999Y10967000D03*
%TD*%
D17*
%TO.C,R61*%
X58145000Y35230000D03*
X59795000Y35230000D03*
%TD*%
D19*
%TO.C,R57*%
X61430000Y36905000D03*
X61430000Y35255000D03*
%TD*%
%TO.C,R3*%
X31190000Y7440000D03*
X31190000Y5790000D03*
%TD*%
D47*
%TO.C,D11*%
X17002500Y23162406D03*
X18577500Y23162406D03*
%TD*%
D20*
%TO.C,R26*%
X78700000Y41735000D03*
X78700000Y43385000D03*
%TD*%
D16*
%TO.C,C72*%
X47110000Y-530000D03*
X45560000Y-530000D03*
%TD*%
D48*
%TO.C,Q5*%
X20735000Y23132406D03*
X22610000Y24082406D03*
X22610000Y22182406D03*
%TD*%
D49*
%TO.C,C8*%
X23620000Y13815000D03*
X21720000Y13815000D03*
%TD*%
D33*
%TO.C,C74*%
X56880000Y340000D03*
X56880000Y1890000D03*
%TD*%
D20*
%TO.C,R64*%
X20787500Y36697500D03*
X20787500Y38347500D03*
%TD*%
D13*
%TO.C,C70*%
X40110000Y67915000D03*
X40110000Y70865000D03*
%TD*%
D18*
%TO.C,C47*%
X79030000Y66220000D03*
X76080000Y66220000D03*
%TD*%
D50*
%TO.C,D15*%
X30662500Y20380000D03*
X29822500Y20380000D03*
%TD*%
D51*
%TO.C,C73*%
X58960000Y3330000D03*
X58960000Y380000D03*
%TD*%
D13*
%TO.C,C3*%
X16290000Y6160000D03*
X16290000Y9110000D03*
%TD*%
D15*
%TO.C,C64*%
X4690000Y38130000D03*
X6240000Y38130000D03*
%TD*%
D52*
%TO.C,J1*%
X-390000Y8175000D03*
X3540000Y8175000D03*
X-390000Y18395000D03*
X3540000Y18395000D03*
D53*
X4115000Y16485000D03*
X4115000Y15685000D03*
D54*
X4115000Y15035000D03*
X4115000Y14035000D03*
X4115000Y12535000D03*
X4115000Y11535000D03*
D53*
X4115000Y10885000D03*
X4115000Y10085000D03*
X4115000Y10085000D03*
X4115000Y10885000D03*
D54*
X4115000Y12035000D03*
X4115000Y13035000D03*
X4115000Y13535000D03*
X4115000Y14535000D03*
D53*
X4115000Y15685000D03*
X4115000Y16485000D03*
%TD*%
D15*
%TO.C,C45*%
X38945000Y16970000D03*
X40495000Y16970000D03*
%TD*%
D55*
%TO.C,Q3*%
X20770000Y43935000D03*
X19820000Y45810000D03*
X21720000Y45810000D03*
%TD*%
D18*
%TO.C,C77*%
X67265000Y48025000D03*
X64315000Y48025000D03*
%TD*%
D15*
%TO.C,C14*%
X34945000Y7210000D03*
X36495000Y7210000D03*
%TD*%
D14*
%TO.C,R68*%
X94280000Y64480000D03*
X92630000Y64480000D03*
%TD*%
D23*
%TO.C,FB3*%
X72177500Y66180000D03*
X70602500Y66180000D03*
%TD*%
D33*
%TO.C,C32*%
X30490000Y36925000D03*
X30490000Y38475000D03*
%TD*%
D49*
%TO.C,C48*%
X77885000Y63970000D03*
X75985000Y63970000D03*
%TD*%
D13*
%TO.C,C50*%
X4790000Y61285000D03*
X4790000Y64235000D03*
%TD*%
D20*
%TO.C,R86*%
X62630000Y12840000D03*
X62630000Y14490000D03*
%TD*%
D14*
%TO.C,R12*%
X28865000Y25890000D03*
X27215000Y25890000D03*
%TD*%
D19*
%TO.C,R2*%
X29670000Y7440000D03*
X29670000Y5790000D03*
%TD*%
D15*
%TO.C,C36*%
X51060000Y17450000D03*
X52610000Y17450000D03*
%TD*%
D12*
%TO.C,C54*%
X85903783Y39482887D03*
X86863783Y39482887D03*
%TD*%
D16*
%TO.C,C41*%
X45150000Y54930000D03*
X43600000Y54930000D03*
%TD*%
D56*
%TO.C,D2*%
X28073552Y2563538D03*
X28073552Y4138538D03*
%TD*%
D15*
%TO.C,C88*%
X89860000Y18300000D03*
X91410000Y18300000D03*
%TD*%
D19*
%TO.C,R83*%
X33410000Y18490000D03*
X33410000Y16840000D03*
%TD*%
D20*
%TO.C,R79*%
X24460000Y18332406D03*
X24460000Y19982406D03*
%TD*%
D57*
%TO.C,MK2*%
X54400000Y314000D03*
X55300000Y314000D03*
X55300000Y-508000D03*
X53500000Y-508000D03*
X53500000Y314000D03*
%TD*%
D48*
%TO.C,Q6*%
X20705000Y19182406D03*
X22580000Y20132406D03*
X22580000Y18232406D03*
%TD*%
D14*
%TO.C,R21*%
X28905000Y50220000D03*
X27255000Y50220000D03*
%TD*%
D46*
%TO.C,C35*%
X52770000Y11605000D03*
X52770000Y10055000D03*
%TD*%
D17*
%TO.C,R15*%
X10965000Y12540000D03*
X12615000Y12540000D03*
%TD*%
D33*
%TO.C,C80*%
X76690000Y30795000D03*
X76690000Y32345000D03*
%TD*%
D58*
%TO.C,U1*%
X23167500Y8540000D03*
X23167500Y9040000D03*
X23167500Y9540000D03*
X23167500Y10040000D03*
X23167500Y10540000D03*
D59*
X24105000Y11477500D03*
X24605000Y11477500D03*
X25105000Y11477500D03*
X25605000Y11477500D03*
X26105000Y11477500D03*
D58*
X27042500Y10540000D03*
X27042500Y10040000D03*
X27042500Y9540000D03*
X27042500Y9040000D03*
X27042500Y8540000D03*
D59*
X26105000Y7602500D03*
X25605000Y7602500D03*
X25105000Y7602500D03*
X24605000Y7602500D03*
X24105000Y7602500D03*
D60*
X25730000Y10165000D03*
X24480000Y10165000D03*
X25730000Y8915000D03*
X24480000Y8915000D03*
%TD*%
D56*
%TO.C,D3*%
X29610000Y2562500D03*
X29610000Y4137500D03*
%TD*%
D18*
%TO.C,C68*%
X2705000Y50980000D03*
X-245000Y50980000D03*
%TD*%
D42*
%TO.C,C7*%
X20875000Y3170000D03*
X23825000Y3170000D03*
%TD*%
D15*
%TO.C,C91*%
X8830000Y4430000D03*
X10380000Y4430000D03*
%TD*%
D19*
%TO.C,R71*%
X16588645Y50728128D03*
X16588645Y49078128D03*
%TD*%
D14*
%TO.C,R55*%
X67345000Y53290000D03*
X65695000Y53290000D03*
%TD*%
D17*
%TO.C,R11*%
X51070000Y15810000D03*
X52720000Y15810000D03*
%TD*%
%TO.C,R58*%
X59875000Y30490000D03*
X61525000Y30490000D03*
%TD*%
D56*
%TO.C,D10*%
X15870000Y40112188D03*
X15870000Y41687188D03*
%TD*%
D46*
%TO.C,C31*%
X41560000Y21135000D03*
X41560000Y19585000D03*
%TD*%
D20*
%TO.C,R47*%
X47670000Y68515000D03*
X47670000Y70165000D03*
%TD*%
D13*
%TO.C,C21*%
X48720000Y8585000D03*
X48720000Y11535000D03*
%TD*%
D57*
%TO.C,MK1*%
X50000000Y302000D03*
X50900000Y302000D03*
X50900000Y-520000D03*
X49100000Y-520000D03*
X49100000Y302000D03*
%TD*%
D15*
%TO.C,C17*%
X34955000Y5670000D03*
X36505000Y5670000D03*
%TD*%
D17*
%TO.C,R14*%
X10985000Y14260000D03*
X12635000Y14260000D03*
%TD*%
D14*
%TO.C,R73*%
X27700000Y18382406D03*
X26050000Y18382406D03*
%TD*%
D33*
%TO.C,C28*%
X46260000Y46935000D03*
X46260000Y48485000D03*
%TD*%
D16*
%TO.C,C49*%
X77510000Y62190000D03*
X75960000Y62190000D03*
%TD*%
D47*
%TO.C,D12*%
X17002500Y19226451D03*
X18577500Y19226451D03*
%TD*%
D15*
%TO.C,C65*%
X4690000Y25670000D03*
X6240000Y25670000D03*
%TD*%
D20*
%TO.C,R87*%
X78070000Y12910000D03*
X78070000Y14560000D03*
%TD*%
D16*
%TO.C,C23*%
X48700000Y20980000D03*
X47150000Y20980000D03*
%TD*%
D61*
%TO.C,U2*%
X7970000Y13295000D03*
X5970000Y12645000D03*
X5970000Y13945000D03*
%TD*%
D33*
%TO.C,C2*%
X13790000Y7630000D03*
X13790000Y9180000D03*
%TD*%
D56*
%TO.C,D4*%
X31141829Y2556985D03*
X31141829Y4131985D03*
%TD*%
D19*
%TO.C,R8*%
X7640000Y17320000D03*
X7640000Y15670000D03*
%TD*%
D18*
%TO.C,C63*%
X7690000Y40070000D03*
X4740000Y40070000D03*
%TD*%
D19*
%TO.C,R1*%
X28140000Y7440000D03*
X28140000Y5790000D03*
%TD*%
D62*
%TO.C,C11*%
X6140000Y8205000D03*
X6140000Y6305000D03*
%TD*%
D13*
%TO.C,C16*%
X41620000Y5205000D03*
X41620000Y8155000D03*
%TD*%
D19*
%TO.C,R91*%
X30790000Y16110000D03*
X30790000Y14460000D03*
%TD*%
D33*
%TO.C,C29*%
X56040000Y43635000D03*
X56040000Y45185000D03*
%TD*%
D20*
%TO.C,R16*%
X44740000Y48885000D03*
X44740000Y50535000D03*
%TD*%
D14*
%TO.C,R48*%
X45395000Y67040000D03*
X43745000Y67040000D03*
%TD*%
D46*
%TO.C,C22*%
X35870000Y21455000D03*
X35870000Y19905000D03*
%TD*%
D33*
%TO.C,C89*%
X29230000Y14510000D03*
X29230000Y16060000D03*
%TD*%
D16*
%TO.C,C37*%
X52600000Y18990000D03*
X51050000Y18990000D03*
%TD*%
D14*
%TO.C,R27*%
X31435000Y61610000D03*
X29785000Y61610000D03*
%TD*%
D19*
%TO.C,R7*%
X6110000Y17320000D03*
X6110000Y15670000D03*
%TD*%
%TO.C,R51*%
X54380000Y3845000D03*
X54380000Y2195000D03*
%TD*%
D63*
%TO.C,XTAL1*%
X36605000Y14900000D03*
X39015000Y14900000D03*
%TD*%
D46*
%TO.C,C25*%
X30330000Y24650000D03*
X30330000Y23100000D03*
%TD*%
D42*
%TO.C,C38*%
X46257500Y15440000D03*
X49207500Y15440000D03*
%TD*%
D14*
%TO.C,R59*%
X80075000Y33590000D03*
X78425000Y33590000D03*
%TD*%
D46*
%TO.C,C10*%
X9480000Y15830000D03*
X9480000Y14280000D03*
%TD*%
D15*
%TO.C,C67*%
X-355000Y46630000D03*
X1195000Y46630000D03*
%TD*%
D20*
%TO.C,R49*%
X45450000Y68535000D03*
X45450000Y70185000D03*
%TD*%
D16*
%TO.C,C42*%
X45685000Y21680000D03*
X44135000Y21680000D03*
%TD*%
D19*
%TO.C,R50*%
X49970000Y3845000D03*
X49970000Y2195000D03*
%TD*%
D42*
%TO.C,C82*%
X89480000Y5120000D03*
X92430000Y5120000D03*
%TD*%
D13*
%TO.C,C5*%
X20670000Y6140000D03*
X20670000Y9090000D03*
%TD*%
D17*
%TO.C,R4*%
X26095000Y14475000D03*
X27745000Y14475000D03*
%TD*%
D33*
%TO.C,C90*%
X34300000Y19890000D03*
X34300000Y21440000D03*
%TD*%
D20*
%TO.C,R18*%
X41500000Y48865000D03*
X41500000Y50515000D03*
%TD*%
D14*
%TO.C,R6*%
X9485000Y6295000D03*
X7835000Y6295000D03*
%TD*%
D48*
%TO.C,Q1*%
X61982500Y54327500D03*
X63857500Y55277500D03*
X63857500Y53377500D03*
%TD*%
D14*
%TO.C,R76*%
X21652500Y47632500D03*
X20002500Y47632500D03*
%TD*%
D33*
%TO.C,C51*%
X6790000Y62685000D03*
X6790000Y64235000D03*
%TD*%
D17*
%TO.C,R67*%
X13700000Y19210000D03*
X15350000Y19210000D03*
%TD*%
D20*
%TO.C,R9*%
X36480000Y8685000D03*
X36480000Y10335000D03*
%TD*%
D18*
%TO.C,C43*%
X61095000Y43200000D03*
X58145000Y43200000D03*
%TD*%
D64*
%TO.C,U12*%
X5900000Y27680000D03*
X4650000Y27680000D03*
X3400000Y27680000D03*
X2150000Y27680000D03*
X900000Y27680000D03*
D65*
X-750000Y29330000D03*
X-750000Y30580000D03*
X-750000Y31830000D03*
X-750000Y33080000D03*
X-750000Y34330000D03*
D64*
X900000Y35980000D03*
X2150000Y35980000D03*
X3400000Y35980000D03*
X4650000Y35980000D03*
X5900000Y35980000D03*
D65*
X7550000Y34330000D03*
X7550000Y33080000D03*
X7550000Y31830000D03*
X7550000Y30580000D03*
X7550000Y29330000D03*
D66*
X2200000Y33030000D03*
X2200000Y30630000D03*
X4600000Y33030000D03*
X4600000Y30630000D03*
%TD*%
D14*
%TO.C,R89*%
X25610000Y16300000D03*
X23960000Y16300000D03*
%TD*%
%TO.C,R13*%
X28850000Y28040000D03*
X27200000Y28040000D03*
%TD*%
D46*
%TO.C,C24*%
X55620000Y32725000D03*
X55620000Y31175000D03*
%TD*%
D14*
%TO.C,R56*%
X67355000Y55240000D03*
X65705000Y55240000D03*
%TD*%
D23*
%TO.C,FB2*%
X48737500Y13210000D03*
X47162500Y13210000D03*
%TD*%
D16*
%TO.C,C87*%
X79590000Y16040000D03*
X78040000Y16040000D03*
%TD*%
D17*
%TO.C,R25*%
X57965000Y41220000D03*
X59615000Y41220000D03*
%TD*%
D13*
%TO.C,C1*%
X11820000Y6330000D03*
X11820000Y9280000D03*
%TD*%
D33*
%TO.C,C52*%
X72220000Y55405000D03*
X72220000Y56955000D03*
%TD*%
%TO.C,C79*%
X61480000Y32055000D03*
X61480000Y33605000D03*
%TD*%
D14*
%TO.C,R44*%
X-235000Y40650000D03*
X-1885000Y40650000D03*
%TD*%
D56*
%TO.C,L2*%
X86890000Y40752500D03*
X86890000Y42327500D03*
%TD*%
D42*
%TO.C,C44*%
X28485000Y46700000D03*
X31435000Y46700000D03*
%TD*%
D20*
%TO.C,R65*%
X15870000Y36655000D03*
X15870000Y38305000D03*
%TD*%
D56*
%TO.C,D9*%
X20757500Y40105000D03*
X20757500Y41680000D03*
%TD*%
D17*
%TO.C,R5*%
X26095000Y12945000D03*
X27745000Y12945000D03*
%TD*%
D20*
%TO.C,R24*%
X80230000Y41735000D03*
X80230000Y43385000D03*
%TD*%
D55*
%TO.C,Q4*%
X15843809Y43854201D03*
X14893809Y45729201D03*
X16793809Y45729201D03*
%TD*%
D19*
%TO.C,R43*%
X-1860000Y48565000D03*
X-1860000Y46915000D03*
%TD*%
D23*
%TO.C,FB4*%
X2677500Y64360000D03*
X1102500Y64360000D03*
%TD*%
D14*
%TO.C,R72*%
X27520000Y22262406D03*
X25870000Y22262406D03*
%TD*%
M02*
